<?xml version="1.0" encoding="UTF-8" standalone="no"?>
<!DOCTYPE svg PUBLIC "-//W3C//DTD SVG 1.1//EN" "http://www.w3.org/Graphics/SVG/1.1/DTD/svg11.dtd">
<svg width="100%" height="100%" viewBox="0 0 800 800" version="1.1" xmlns="http://www.w3.org/2000/svg" xmlns:xlink="http://www.w3.org/1999/xlink" xml:space="preserve" xmlns:serif="http://www.serif.com/" style="fill-rule:evenodd;clip-rule:evenodd;stroke-linejoin:round;stroke-miterlimit:2;">
    <path d="M400,0C620.925,0 800,179 800,400C800,621 620.925,800 400,800C179.075,800 0,621 0,400C0,179 179.075,0 400,0ZM354,438C356.122,438 358.157,438.843 359.657,440.343C361.157,441.843 362,443.878 362,446C362,476.158 362,581.3 362,581.3C362,583.343 363.321,585 364.951,585C364.951,585 435.049,585 435.049,585C436.679,585 438,583.343 438,581.3C438,581.3 438,476.158 438,446C438,443.878 438.843,441.843 440.343,440.343C441.843,438.843 443.878,438 446,438C476.158,438 581.3,438 581.3,438C583.343,438 585,436.679 585,435.049C585,435.049 585,364.951 585,364.951C585,363.321 583.343,362 581.3,362C581.3,362 476.163,362 446,362C443.878,362 441.843,361.157 440.343,359.657C438.843,358.157 438,356.122 438,354C438,323.842 438,218.7 438,218.7C438,216.657 436.679,215 435.049,215C435.049,215 435.049,215 435.049,215C435.022,215 364.978,215 364.951,215C364.951,215 364.951,215 364.951,215C363.321,215 362,216.657 362,218.7C362,218.7 362,323.837 362,354C362,356.122 361.157,358.157 359.657,359.657C358.157,361.157 356.122,362 354,362C323.842,362 218.7,362 218.7,362C216.657,362 215,363.321 215,364.951C215,364.951 215,364.951 215,364.951C215,364.978 215,435.022 215,435.049C215,435.049 215,435.049 215,435.049C215,436.679 216.657,438 218.7,438C218.7,438 323.842,438 354,438Z" style="fill:rgb(10,10,10);"/>
</svg>
