<?xml version="1.0" encoding="UTF-8" standalone="no"?>
<!DOCTYPE svg PUBLIC "-//W3C//DTD SVG 1.1//EN" "http://www.w3.org/Graphics/SVG/1.1/DTD/svg11.dtd">
<svg width="100%" height="100%" viewBox="0 0 800 800" version="1.1" xmlns="http://www.w3.org/2000/svg" xmlns:xlink="http://www.w3.org/1999/xlink" xml:space="preserve" xmlns:serif="http://www.serif.com/" style="fill-rule:evenodd;clip-rule:evenodd;stroke-linejoin:round;stroke-miterlimit:2;">
    <path d="M400,0C620.925,0 800,179 800,400C800,621 620.925,800 400,800C179.075,800 0,621 0,400C0,179 179.075,0 400,0ZM373.5,373.5L224,373.5C221.878,373.5 219.843,374.343 218.343,375.843C216.843,377.343 216,379.378 216,381.5L216,418.5C216,420.622 216.843,422.657 218.343,424.157C219.843,425.657 221.878,426.5 224,426.5L373.5,426.5L373.5,576C373.5,578.122 374.343,580.157 375.843,581.657C377.343,583.157 379.378,584 381.5,584L418.5,584C420.622,584 422.657,583.157 424.157,581.657C425.657,580.157 426.5,578.122 426.5,576L426.5,426.5L576,426.5C578.122,426.5 580.157,425.657 581.657,424.157C583.157,422.657 584,420.622 584,418.5L584,381.5C584,379.378 583.157,377.343 581.657,375.843C580.157,374.343 578.122,373.5 576,373.5L426.5,373.5L426.5,224C426.5,221.878 425.657,219.843 424.157,218.343C422.657,216.843 420.622,216 418.5,216L381.5,216C379.378,216 377.343,216.843 375.843,218.343C374.343,219.843 373.5,221.878 373.5,224L373.5,373.5Z"/>
</svg>
