<?xml version="1.0" encoding="UTF-8" standalone="no"?>
<!DOCTYPE svg PUBLIC "-//W3C//DTD SVG 1.1//EN" "http://www.w3.org/Graphics/SVG/1.1/DTD/svg11.dtd">
<svg width="100%" height="100%" viewBox="0 0 800 800" version="1.1" xmlns="http://www.w3.org/2000/svg" xmlns:xlink="http://www.w3.org/1999/xlink" xml:space="preserve" xmlns:serif="http://www.serif.com/" style="fill-rule:evenodd;clip-rule:evenodd;stroke-linejoin:round;stroke-miterlimit:2;">
    <g transform="matrix(1,0,0,1,-850,0)">
        <g>
            <path d="M1642,0C1646.418,0 1650,3.582 1650,8C1650,40.846 1650,165.154 1650,198C1650,202.418 1646.418,206 1642,206C1563.755,206 936.245,206 858,206C853.582,206 850,202.418 850,198C850,165.154 850,40.846 850,8C850,3.582 853.582,0 858,0C936.245,0 1563.755,0 1642,0ZM1605,53C1605,50.878 1604.157,48.843 1602.657,47.343C1601.157,45.843 1599.122,45 1597,45C1524.1,45 975.9,45 903,45C900.878,45 898.843,45.843 897.343,47.343C895.843,48.843 895,50.878 895,53C895,74.223 895,131.777 895,153C895,155.122 895.843,157.157 897.343,158.657C898.843,160.157 900.878,161 903,161C975.9,161 1524.1,161 1597,161C1599.122,161 1601.157,160.157 1602.657,158.657C1604.157,157.157 1605,155.122 1605,153C1605,131.777 1605,74.223 1605,53Z" style="fill:rgb(10,10,10);"/>
            <g transform="matrix(1,0,0,1,0,297)">
                <path d="M1642,0C1646.418,0 1650,3.582 1650,8C1650,40.846 1650,165.154 1650,198C1650,202.418 1646.418,206 1642,206C1563.755,206 936.245,206 858,206C853.582,206 850,202.418 850,198C850,165.154 850,40.846 850,8C850,3.582 853.582,0 858,0C936.245,0 1563.755,0 1642,0ZM1605,53C1605,50.878 1604.157,48.843 1602.657,47.343C1601.157,45.843 1599.122,45 1597,45C1524.1,45 975.9,45 903,45C900.878,45 898.843,45.843 897.343,47.343C895.843,48.843 895,50.878 895,53C895,74.223 895,131.777 895,153C895,155.122 895.843,157.157 897.343,158.657C898.843,160.157 900.878,161 903,161C975.9,161 1524.1,161 1597,161C1599.122,161 1601.157,160.157 1602.657,158.657C1604.157,157.157 1605,155.122 1605,153C1605,131.777 1605,74.223 1605,53Z" style="fill:rgb(10,10,10);"/>
            </g>
            <g transform="matrix(1,0,0,1,0,594)">
                <path d="M1642,0C1646.418,0 1650,3.582 1650,8C1650,40.846 1650,165.154 1650,198C1650,202.418 1646.418,206 1642,206C1563.755,206 936.245,206 858,206C853.582,206 850,202.418 850,198C850,165.154 850,40.846 850,8C850,3.582 853.582,0 858,0C936.245,0 1563.755,0 1642,0ZM1605,53C1605,50.878 1604.157,48.843 1602.657,47.343C1601.157,45.843 1599.122,45 1597,45C1524.1,45 975.9,45 903,45C900.878,45 898.843,45.843 897.343,47.343C895.843,48.843 895,50.878 895,53C895,74.223 895,131.777 895,153C895,155.122 895.843,157.157 897.343,158.657C898.843,160.157 900.878,161 903,161C975.9,161 1524.1,161 1597,161C1599.122,161 1601.157,160.157 1602.657,158.657C1604.157,157.157 1605,155.122 1605,153C1605,131.777 1605,74.223 1605,53Z" style="fill:rgb(10,10,10);"/>
            </g>
        </g>
    </g>
</svg>
