<?xml version="1.0" encoding="UTF-8" standalone="no"?>
<!DOCTYPE svg PUBLIC "-//W3C//DTD SVG 1.1//EN" "http://www.w3.org/Graphics/SVG/1.1/DTD/svg11.dtd">
<svg width="100%" height="100%" viewBox="0 0 650 717" version="1.1" xmlns="http://www.w3.org/2000/svg" xmlns:xlink="http://www.w3.org/1999/xlink" xml:space="preserve" xmlns:serif="http://www.serif.com/" style="fill-rule:evenodd;clip-rule:evenodd;stroke-linejoin:round;stroke-miterlimit:2;">
    <g transform="matrix(1,0,0,1,-75,-41.692126)">
        <g transform="matrix(33.333333,0,0,33.333333,0,0)">
            <path d="M8.342,20.25L8,20.25C6.779,20.25 5.863,20.247 5.157,20.152C4.279,20.034 3.674,19.77 3.202,19.298C2.73,18.826 2.466,18.221 2.348,17.343C2.253,16.637 2.25,15.721 2.25,14.5L2.25,9.5C2.25,8.279 2.253,7.363 2.348,6.657C2.466,5.779 2.73,5.174 3.202,4.702C3.674,4.23 4.279,3.966 5.157,3.848C5.863,3.753 6.779,3.75 8,3.75L8.342,3.75C8.363,3.584 8.389,3.43 8.421,3.288C8.562,2.652 8.816,2.196 9.21,1.847C9.612,1.491 10.093,1.302 10.731,1.259C11.444,1.212 12.409,1.368 13.786,1.609L16.115,2.015C17.353,2.231 18.281,2.396 18.992,2.617C19.847,2.884 20.43,3.24 20.872,3.786C21.308,4.325 21.547,4.977 21.656,5.891C21.747,6.658 21.75,7.639 21.75,8.947L21.75,15.053C21.75,16.361 21.747,17.342 21.656,18.109C21.547,19.023 21.308,19.675 20.872,20.214C20.43,20.76 19.847,21.116 18.992,21.383C18.281,21.604 17.353,21.769 16.115,21.985L13.786,22.391C12.409,22.632 11.444,22.788 10.731,22.741C10.093,22.698 9.612,22.509 9.21,22.153C8.816,21.804 8.562,21.348 8.421,20.712C8.389,20.57 8.363,20.416 8.342,20.25ZM8.257,5.25L8,5.25C6.864,5.25 6.013,5.247 5.357,5.335C4.873,5.4 4.523,5.502 4.263,5.763C4.002,6.023 3.9,6.373 3.835,6.857C3.747,7.513 3.75,8.364 3.75,9.5L3.75,14.5C3.75,15.636 3.747,16.487 3.835,17.143C3.9,17.627 4.002,17.977 4.263,18.237C4.523,18.498 4.873,18.6 5.357,18.665C6.013,18.753 6.864,18.75 8,18.75L8.257,18.75C8.251,18.38 8.25,17.973 8.25,17.524L8.25,6.476C8.25,6.027 8.251,5.62 8.257,5.25ZM9.75,6.476L9.75,17.524C9.75,18.627 9.747,19.455 9.832,20.082C9.89,20.513 9.971,20.822 10.205,21.03C10.428,21.228 10.721,21.259 11.118,21.249C11.72,21.234 12.495,21.094 13.529,20.914L15.858,20.508C17.014,20.306 17.882,20.158 18.546,19.951C19.066,19.789 19.437,19.602 19.706,19.27C19.981,18.93 20.098,18.508 20.166,17.932C20.253,17.209 20.25,16.285 20.25,15.053L20.25,8.947C20.25,7.715 20.253,6.791 20.166,6.068C20.098,5.492 19.981,5.07 19.706,4.73C19.437,4.398 19.066,4.211 18.546,4.049C17.882,3.842 17.014,3.694 15.858,3.492L13.529,3.086C12.495,2.906 11.72,2.766 11.118,2.751C10.721,2.741 10.428,2.772 10.205,2.97C9.971,3.178 9.89,3.487 9.832,3.918C9.747,4.545 9.75,5.373 9.75,6.476ZM11.25,11C11.25,10.586 11.586,10.25 12,10.25C12.414,10.25 12.75,10.586 12.75,11L12.75,13C12.75,13.414 12.414,13.75 12,13.75C11.586,13.75 11.25,13.414 11.25,13L11.25,11Z" style="fill:rgb(10,10,10);"/>
        </g>
    </g>
</svg>
