<?xml version="1.0" encoding="UTF-8" standalone="no"?>
<!DOCTYPE svg PUBLIC "-//W3C//DTD SVG 1.1//EN" "http://www.w3.org/Graphics/SVG/1.1/DTD/svg11.dtd">
<svg width="100%" height="100%" viewBox="0 0 216 265" version="1.1" xmlns="http://www.w3.org/2000/svg" xmlns:xlink="http://www.w3.org/1999/xlink" xml:space="preserve" xmlns:serif="http://www.serif.com/" style="fill-rule:evenodd;clip-rule:evenodd;stroke-linejoin:round;stroke-miterlimit:2;">
    <g transform="matrix(1,0,0,1,-80.670553,-59.900228)">
        <g transform="matrix(1.915709,0,0,2.192982,1131.007663,279.854722)">
            <g transform="matrix(-0,0.144654,-0.165591,-0,-408.151465,-163.940782)">
                <path d="M1094.899,537.674C1096.266,553.692 1092.252,560.96 1081.186,569.804C1069.591,579.072 1078.083,583.847 1066.35,605.558C1058.525,620.038 1057.52,619.429 1051.42,631.086C1048.164,637.307 1037.979,657.589 1035.374,662.043C1028.391,673.985 1032.637,675.185 1028.231,701.247C1027.484,705.669 1026.039,724.159 1019.788,734.565C1018.111,737.356 1015.012,742.841 1007.131,745.926C1003.397,747.388 1001.065,746.566 997.066,751.026C989.75,759.186 987.336,760.592 980.465,764.644C974.733,768.026 971.128,766.143 968.173,773.216C963.416,784.604 957.725,789.655 945.621,795.48C939.123,798.607 918.804,803.927 899.459,815.618C897.528,816.785 892.004,819.613 888.946,821.572C888.233,822.028 875.823,829.315 866.138,831.215C865.944,831.253 852.247,835.062 838.914,826.282C827.019,818.448 824.056,817.682 822.615,817.309C811.338,814.391 807.768,818.054 792.667,812.475C783.75,809.181 783.511,810.512 780.828,811.085C765.527,814.354 763.55,810.119 750.719,812.014C748.445,812.35 739.174,813.719 725.829,826.362C716.981,834.743 703.671,851.571 678.945,844.523C677.488,844.108 668.024,840.671 664.27,837.195C659.157,832.458 660.217,827.46 648.775,827.996C636.704,828.562 625.245,818.275 622.47,814.662C612.667,801.899 613.703,797.58 602.373,786.623C591.256,775.872 574.826,773.993 566.08,764.401C555.677,752.993 559.729,740.719 559.819,728.239C559.863,722.206 554.778,722.552 550.467,715.775C542.269,702.887 544.299,692.088 544.231,678.753C544.207,674.104 542.906,672.966 534.77,671.155C529.906,670.072 510.441,669.597 498.964,661.915C496.039,659.958 494.771,659.452 489.424,653.539C487.272,651.159 483.194,645.778 482.094,644.368C470.904,630.026 466.914,613.003 465.486,609.869C457.511,592.372 445.161,595.221 441.253,579.88C439.775,574.076 440.236,573.989 439.986,542.252C439.855,525.602 439.953,523.705 444.303,515.036C448.038,507.592 448.204,498.718 448.231,497.261C448.486,483.658 447.494,470.637 459.143,453.342C461.348,450.069 461.167,449.984 463.399,446.719C463.872,446.026 463.925,446.075 469.813,438.425C474.527,432.301 472.763,429.371 473.019,413.247C473.299,395.577 485.14,387.176 488.232,381.739C498.38,363.894 486.147,357.728 505.073,332.481C512.247,322.91 511.534,322.473 516.233,313.975C516.807,312.937 523.1,299.785 524.441,296.335C527.207,289.224 525.921,288.968 526.362,272.272C527.242,238.958 549.984,235.189 564.969,227.714C568.657,225.874 588.436,218.57 597.028,208.585C597.104,208.497 604.391,199.184 615.212,190.59C621.159,185.867 638.29,172.579 657.729,172.424C663.407,172.379 670.039,176.785 674.436,178.845C685.779,184.159 685.854,185.292 705.72,184.637C728.004,183.903 733.093,176.663 755.244,176.801C771.695,176.903 773.014,177.73 788.228,171.698C795.575,168.785 804.372,162.543 830.225,168.854C832.959,169.522 833.878,169.311 840.8,171.59C841.99,171.981 842.048,171.736 855.849,175.9C857.148,176.292 888.845,186.458 893.057,188.636C905.562,195.103 903.685,198.98 914.039,215.388C926.91,235.788 944.074,225.992 955.993,230.889C967.412,235.58 967.19,241.901 975.56,244.391C992.094,249.31 1000.05,251.843 1012.948,267.982C1022.599,280.058 1025.781,277.392 1032.837,279.433C1051.548,284.845 1060.235,298.407 1061.663,306.662C1064.106,320.791 1056.473,330.587 1073.682,346.785C1079.811,352.554 1084.966,360.395 1087.139,365.069C1095.738,383.567 1092.83,400.847 1093.392,429.727C1093.601,440.496 1104.802,449.799 1103.867,474.781C1103.748,477.955 1102.136,490.979 1098.212,498.477C1092.819,508.785 1088.948,510.923 1092.51,525.814C1093.336,529.266 1094.055,531.682 1094.899,537.674ZM914.395,345.133C913.908,345.043 909.863,344.294 908.255,344.369C905.977,344.474 903.274,345.628 902.527,346.166C895.04,351.559 901.395,356.977 901.465,357.055C905.76,361.842 906.229,362.166 905.226,369.747C904.302,376.727 909.843,383.544 914.295,381.848C918.303,380.32 916.51,374.145 920.048,368.12C923.431,362.358 938.866,357.095 945.369,368.465C947.261,371.772 946.025,372.509 951.455,378.992C961.005,390.395 951.197,394.881 948.738,394.955C942.816,395.133 941,387.371 940.605,386.551C940.378,386.078 938.663,382.514 935.206,382.817C929.988,383.273 929.8,392.104 929.749,392.362C928.377,399.214 920.245,400.035 920.186,404.249C920.143,407.398 925.071,409.223 926.432,409.849C937.173,414.794 936.769,418.14 941.362,426.682C944.512,432.54 951.115,434.484 956.251,434.271C965.009,433.907 972.925,431.94 974.345,431.587C978.84,430.47 983.048,430.006 987.308,427.507C994.454,423.316 993.523,411.21 983.693,405.012C978.728,401.881 973.913,404.569 970.158,400.811C963.956,394.604 972.883,385.588 980.279,385.163C993.489,384.405 993.141,396.473 993.989,398.143C995.781,401.672 998.623,402.796 999.469,403.282C1001.367,404.369 1001.386,404.261 1002.445,404.814C1008.34,407.888 1011.37,412.642 1016.262,412.741C1024.941,412.918 1023.549,403.685 1031.127,400.931C1040.89,397.382 1044.584,410.334 1052.241,409.754C1058.482,409.281 1058.12,402.788 1058.788,399.883C1060.242,393.564 1066.028,390.889 1067.343,387.794C1070.207,381.054 1060.509,376.013 1059.875,375.566C1050.769,369.148 1051.961,361.595 1051.991,356.249C1052.074,341.337 1038.584,338.881 1034.073,337.226C1025.594,334.115 1022.951,324.797 1025.766,320.565C1029.027,315.66 1034.207,316.963 1035.759,316.988C1042.374,317.091 1041.119,310.582 1038.251,307.154C1031.04,298.532 1025.746,307.091 1024.953,307.998C1019.176,314.597 1013.927,310.944 1013.157,309.833C1008.887,303.666 1015.883,298.617 1012.672,293.586C1008.222,286.613 999.441,290.482 995.292,289.882C994.289,289.737 989.317,289.018 985.866,281.428C982.466,273.95 982.658,273.775 982.485,267.734C982.464,267.002 982.306,261.495 977.256,260.227C970.364,258.497 968.752,268.503 956.337,261.6C947.369,256.613 941.907,259.76 934.585,270.278C927.619,280.285 920.569,284.527 919.775,285.152C918.258,286.349 905.716,293.439 899.287,306.77C895.25,315.143 894.894,315.672 890.618,323.444C886.379,331.149 888.456,338.784 894.902,337.498C895.499,337.379 897.237,337.324 900.364,333.446C907.51,324.584 909.747,322.733 919.895,329.762C923.16,332.023 925.916,333.205 927.584,335.37C929.017,337.23 928.913,340.862 927.512,342.57C923.131,347.91 915.587,345.39 914.395,345.133ZM951.751,347.854C951.029,347.675 944.263,348.181 944.782,336.776C945.239,326.718 958.671,329.511 958.87,339.761C958.878,340.219 958.933,343.034 957.121,345.215C955.136,347.605 954.771,347.095 951.751,347.854ZM944.858,284.146C944.841,283.669 944.754,283.197 944.737,282.72C944.518,276.65 950.028,269.957 959.03,275.612C963.155,278.203 963.4,277.67 968.257,277.771C978.373,277.98 983.654,286.883 969.507,292.629C961.305,295.96 962.044,297.899 958.993,300.445C958.472,300.879 954.825,303.923 950.515,300.405C945.98,296.703 947.426,294.941 944.858,284.146ZM924.126,305.191C924.184,304.731 924.666,300.917 925.36,299.522C925.548,299.146 926.813,296.605 929.105,295.839C935.514,293.696 937.446,303.066 938.44,308.217C939.163,311.964 936.79,314.815 935.176,315.624C928.598,318.923 924.179,311.771 923.999,308.184C923.949,307.187 924.176,306.189 924.126,305.191ZM960.691,423.156C959.499,423.171 955.095,423.873 952.018,420.523C946.462,414.475 961.003,404.571 967.92,413.482C969.456,415.46 969.079,419.33 966.881,420.9C964.155,422.848 963.988,422.508 960.691,423.156ZM1044.738,378.105C1045.267,378.18 1045.81,378.113 1046.339,378.187C1051.236,378.875 1052.632,383.462 1051.833,386.141C1048.359,397.782 1024.764,390.922 1036.843,381.226C1040.85,378.01 1044.292,378.175 1044.738,378.105ZM995.271,300.129C995.484,300.168 997.551,299.938 1001.292,302.188C1008.501,306.525 1003.224,318.837 992.307,312.661C986.888,309.596 986.036,302.709 992.191,300.591C992.427,300.51 992.419,300.557 995.271,300.129ZM1005.406,390.973C1005.289,390.747 1005.069,390.584 1004.952,390.357C1001.287,383.258 1010.464,378.332 1015.734,383.745C1020.661,388.807 1017.836,397.427 1010.339,394.995C1007.221,393.983 1005.518,391.102 1005.406,390.973ZM1029.924,352.185C1036.995,349.17 1041.484,355.486 1042.156,360.697C1043.365,370.064 1034.477,377.763 1025.247,375.766C1015.078,373.566 1010.251,366.342 1014.985,360.955C1017.204,358.43 1017.516,358.828 1020.528,357.298C1027.367,353.822 1027.356,353.279 1029.924,352.185ZM1013.794,328.917C1017.64,334.663 1011.9,339.876 1011.887,339.888C1007.061,344.676 992.351,348.178 985.197,339.389C978.485,331.142 983.409,318.118 995.014,322.391C998.775,323.775 998.751,323.866 1002.754,324.161C1007.674,324.265 1010.709,324.308 1013.794,328.917ZM968.286,371.494C967.831,371.566 964.68,372.065 962.585,370.686C953.059,364.413 965.372,351.495 972.703,350.01C979.23,348.687 991.916,355.104 993.808,356.155C998.571,358.802 1002.219,365.697 997.673,370.72C992.008,376.979 980.47,372.218 980.424,372.206C973.952,370.434 973.873,370.609 968.286,371.494ZM974.746,317.216C974.648,318.491 975.069,322.477 971.551,325.183C964.142,330.882 953.882,314.284 964.075,308.911C967.533,307.087 970.671,309.57 971.118,309.923C974.498,312.598 974.7,317.003 974.746,317.216ZM725.835,297.76C725.271,277.31 716.06,277.435 710.181,275.459C700.164,272.093 699.281,262.899 708.954,257.64C711.226,256.405 725.438,253.151 720.426,239.369C718.293,233.506 718.311,233.477 718.127,227.241C718.093,226.101 717.877,218.803 710.168,215.42C700.215,211.054 695.559,216.367 686.091,206.4C677.57,197.431 675.607,198.163 660.685,199.646C653.583,200.352 653.635,207.812 651.202,211.926C645.976,220.761 637.399,214.951 639.494,207.67C641.324,201.307 648.449,198.175 649.91,196.866C655.081,192.233 647.511,185.162 639.387,190.683C629.761,197.225 632.486,204.933 630.032,208.82C625.939,215.307 618.164,213.405 617.265,213.36C611.724,213.088 606.32,216.971 606.252,222.746C606.16,230.517 614.311,234.368 607.522,244.721C607.055,245.433 604.879,247.668 602.288,248.384C595.011,250.395 592.934,241.55 588.772,239.215C580.965,234.834 575.622,237.772 573.511,238.718C566.354,241.928 562.609,252.568 565.779,256.147C568.665,259.406 572.364,256.609 574.872,255.111C582.467,250.573 588.116,256.832 585.519,261.634C581.683,268.725 572.628,269.423 564.92,275.471C560.702,278.781 559.023,283.465 562.81,286.386C564.702,287.845 569.053,287.742 569.187,287.76C578.483,288.956 572.192,298.77 575.327,305.207C578.08,310.86 594.742,318.311 598.968,320.754C610.027,327.149 615.427,325.06 620.346,325.662C624.027,326.112 627.614,329.786 628.052,333.72C628.333,336.248 625.867,342.272 629.514,345.472C635.323,350.569 641.458,345.76 663.966,338.943C665.387,338.513 682.891,335.537 707.29,323.324C711.913,321.011 719.001,315.281 720.78,312.775C723.876,308.414 725.217,306.036 725.835,297.76ZM707.681,231.483C707.921,231.945 709.596,235.166 709.171,237.818C708.99,238.944 706.786,245.59 699.624,242.517C698.883,242.199 698.925,242.129 690.688,237.86C683.703,234.241 684.263,226.378 693.747,225.705C695.303,225.594 702.025,225.92 705.558,228.977L707.681,231.483ZM689.682,318.923C689.412,319.284 689.333,319.764 689.063,320.125C684.659,326.023 675.841,320.56 678.731,314.24C680.797,309.724 688.399,309.839 689.856,315.584C690.129,316.659 690.107,317.083 690.1,317.215C690.053,318.118 689.729,318.024 689.682,318.923ZM702.168,290.434C702.369,291.238 703.983,297.7 703.623,300.698C702.783,307.699 695.397,308.529 692.136,303.837C688.029,297.926 686.459,292.927 676.976,298.807C676.245,299.261 670.631,302.743 666.764,302.161C662.434,301.51 653.471,294.128 666.842,285.9C674.499,281.188 678.271,275.745 689.168,277.251C695.689,278.152 699.595,284.585 700.166,285.526C700.942,286.803 700.816,286.841 702.168,290.434ZM651.722,326.781C651.214,326.669 650.684,326.679 650.176,326.567C644.407,325.291 641.753,320.963 641.296,320.218C636.231,311.958 635.69,311.861 631.001,309.281C609.26,297.319 634.549,278.204 645.465,293.454C650.075,299.895 645.769,303.339 657.756,311.242C662.816,314.577 664.029,320.757 659.085,324.524C655.936,326.923 655.655,326.3 651.722,326.781ZM609.66,306.234C610.215,306.322 610.789,306.154 611.343,306.242C614.57,306.755 616.729,310.949 615.358,314.092C611.862,322.106 602.198,316.525 605.193,309.721C606.401,306.979 606.93,307.426 609.66,306.234ZM671.486,213.196C672.022,213.471 676.076,214.587 677.005,219.784C677.861,224.571 673.834,227.86 669.896,233.357C667.974,236.038 663.412,243.22 656.333,240.55C654.761,239.956 646.775,236.943 655.886,219.552C658.391,214.77 664.664,211.073 669.668,212.544C670.286,212.726 670.868,213.015 671.486,213.196ZM680.29,246.069C681.057,246.25 684.161,245.96 688.318,250.772C695.838,259.479 686.47,266.198 680.384,264.313C670.535,261.263 672.26,251.172 674.51,248.47C676.622,245.934 677.044,246.554 680.29,246.069ZM612.121,276.647C611.14,281.901 610.953,281.91 611.533,287.219C612.561,296.628 604.494,299.889 598.968,296.824C595.941,295.145 595.937,295.066 594.132,292.097C593.781,291.519 592.499,291.598 592.37,279.738C592.36,278.82 591.343,271.617 598.047,266.676C600.734,264.696 605.223,264.094 607.898,265.497C613.738,268.562 612.144,276.344 612.121,276.647ZM648.156,261.806C647.715,256.274 653.062,253.349 657.669,254.524C666.291,256.725 666.392,269.373 662.031,275.086C658.384,279.864 652.839,279.908 650.388,278.051C646.386,275.019 647.554,271.54 647.923,269.414C648.58,265.627 648.462,265.641 648.156,261.806ZM636.513,242.072C636.492,242.103 633.603,245.138 634.011,249.723C634.504,255.277 642.018,262.327 636.569,269.093C635.974,269.832 627.822,276.751 621.446,263.4C615.213,250.35 624.22,248.232 620.616,239.091C618.818,234.533 614.941,229.479 618.29,225.399C621.913,220.985 627.649,222.826 633.861,225.517C635.548,226.248 636.882,227.013 637.918,227.801C644.012,232.437 639.794,237.884 636.513,242.072ZM984.099,482.265C984.08,487.811 984.976,492.412 976.846,498.18C969.632,503.298 966.332,501.647 965.491,501.226C956.511,496.731 965.039,486.524 959.991,478.791C959.605,478.2 957.039,474.269 953.368,472.956C947.561,470.878 941.629,474.386 940.875,482.21C940.439,486.74 940.568,486.748 939.412,491.149C936.654,501.651 946.849,502.49 951.239,509.578C953.989,514.017 951.719,519.608 945.844,521.5C936.422,524.536 932.69,521.458 927.015,528.135C919.737,536.698 927.835,547.695 931.007,561.697C931.732,564.902 930.197,587.072 951.636,595.052C962.386,599.052 964.917,598.864 970.448,606.227C978.959,617.556 983.717,606.739 984.857,605.334C990.787,598.026 997.987,605.456 998.763,606.257C1000.714,608.27 1003.471,612.265 1008.929,610.171C1009.32,610.021 1015.686,606.776 1013.146,599.288C1012.229,596.586 1008.672,590.986 1012.17,587.681C1012.754,587.13 1019.93,583.153 1022.38,591.714C1023.711,596.366 1025.074,602.652 1037.035,594.424C1045.329,588.719 1054.791,588.072 1056.553,579.715C1057.974,572.979 1045.357,569.272 1043.232,560.254C1040.931,550.486 1053.998,547.363 1045.146,535.954C1042.771,532.894 1039.769,529.048 1041.752,524.251C1042.759,521.813 1047.986,516.182 1056.987,520.739C1060.425,522.48 1066.462,526.625 1069.869,519.585C1073.567,511.943 1063.411,505.727 1076.799,493.347C1080.673,489.764 1089.067,484.215 1084.647,467.411C1084.432,466.592 1080.494,454.09 1070.346,450.504C1065.408,448.759 1044.532,446.923 1037.379,448.396C1027.617,450.405 1019.359,462.924 1004.257,463.123C998.43,463.199 991.647,461.983 986.706,467.634C982.883,472.006 984.083,481.85 984.099,482.265ZM1013.223,540.251C1013.747,540.317 1014.283,540.248 1014.807,540.315C1022.078,541.236 1026.379,549.287 1021.775,553.789C1014.692,560.714 1005.12,549.454 1007.732,543.957C1009.246,540.773 1009.808,541.194 1013.223,540.251ZM1011.743,506.946C1014.488,507.42 1018.508,507.354 1025.54,514.987C1032.525,522.569 1027.332,530.373 1019.257,528.717C1010.176,526.855 1009.848,527.078 1001.137,531.535C990.159,537.152 984.146,525.563 992.183,519.667C995.935,516.914 998.371,516.503 1002.415,511.959C1006.117,507.801 1006.468,507.743 1011.743,506.946ZM993.226,567.815C993.327,567.269 993.184,566.696 993.286,566.15C993.99,562.357 1000.272,558.961 1006.302,564.09C1016.211,572.518 1003.913,581.357 996.017,572.934C993.444,570.189 993.506,568.611 993.226,567.815ZM936.804,554.191C928.087,544.671 937.699,539.722 942.608,542.496C948.655,545.912 948.01,554.707 942.834,556.047C939.593,556.885 939.64,555.974 936.804,554.191ZM984.042,561.697C982.408,571.277 982.147,572.186 987.204,578.676C992.5,585.473 993.104,593.024 980.19,594.11C962.245,595.62 958.338,589.84 955.14,581.109C951.059,569.962 945.797,561.369 957.434,553.727C963.334,549.853 982.846,547.355 983.901,558.657C983.995,559.668 983.948,560.687 984.042,561.697ZM1071.139,473.146C1070.748,474.253 1070.937,475.21 1068.846,477.843C1066.767,480.462 1058.499,482.625 1055.399,471.714C1053.384,464.623 1059.084,456.674 1065.798,459.655C1068.295,460.763 1071.497,465.648 1071.251,471.722C1071.232,472.198 1071.159,472.67 1071.139,473.146ZM1037.39,566.156C1038.769,569.108 1039.254,569.005 1039.271,572.246C1039.308,579.403 1029.048,587.887 1024.426,579.417C1021.916,574.818 1023.522,560.732 1032.861,562.793C1035.728,563.425 1035.425,563.998 1037.39,566.156ZM977.77,524.395C976.258,528.074 976.256,528.092 973.525,531.018C973.374,531.18 969.826,533.898 969.39,534.161C962.269,538.452 954.185,534.469 955.9,528.632C956.79,525.601 961.147,524.293 966.558,519.529C967.13,519.026 972.117,514.635 975.958,517.997C976.27,518.271 978.127,519.896 978.077,522.733C978.067,523.296 977.78,523.832 977.77,524.395ZM996.548,500.761C996.152,500.532 995.716,500.376 995.32,500.146C991.177,497.744 992.785,491.394 996.735,489.719C1002.473,487.288 1007.375,494.286 1003.101,499.051C1000.16,502.329 997.075,500.824 996.548,500.761ZM1034.151,473.909C1036.436,474.369 1039.75,474.728 1042.369,477.028C1048.106,482.064 1043.302,485.288 1047.861,491.165C1048.605,492.123 1056.163,498.764 1048.871,504.212C1047.189,505.469 1040.076,507.931 1034.306,503.181C1030.308,499.889 1030.245,496.53 1023.57,493.106C1021.238,491.909 1011.044,488.502 1013.557,479.344C1015.035,473.958 1020.507,471.491 1026.655,472.471C1027.573,472.617 1027.541,472.635 1031.208,473.441L1034.151,473.909ZM1070.761,549.948C1070.865,549.536 1073.019,544.618 1070.093,540.87C1067.184,537.143 1063.058,537.203 1061.153,539.154C1057.425,542.976 1062.865,554.662 1067.178,553.654C1069.894,553.02 1070.724,550.023 1070.761,549.948ZM851.269,581.883C853.703,581.463 853.799,581.79 855.483,580.797C862.783,576.494 851.004,568.107 855.992,561.939C861.266,555.416 869.319,563.143 873.503,561.192C879.982,558.172 876.874,551.852 883.764,540.475C894.895,522.093 895.217,518.091 895.724,498.733C896.204,480.412 910.584,473.845 904.686,447.876C902.436,437.966 889.948,423.833 887.278,419.232C880.199,407.034 877.277,405.501 870.702,404.623C859.368,403.109 860.348,394.247 860.039,389.261C859.408,379.112 854.502,362.914 852.271,359.57C843.063,345.765 835.511,357.477 821.604,348.209C809.011,339.816 803.602,341.978 797.316,343.117C786.258,345.12 783.281,342.248 779.123,339.985C767.457,333.635 765.025,341.957 755.392,344.707C742.602,348.36 732.282,333.585 714.365,348.269C706.647,354.594 704.703,357.963 696.536,361.749C684.155,367.491 674.445,362.853 666.872,366.99C657.499,372.112 662.41,380.418 658.099,386.478C651.305,396.028 644.166,388.596 633.357,399.355C621.269,411.387 628.454,416.561 631.793,419.733C644.46,431.763 623.557,437.152 629.758,450.509C633.758,459.125 642.719,455.232 646.995,458.596C651.796,462.372 650.372,467.539 650.311,468.753C650.154,471.865 651.683,475.088 652.004,476.175C654.662,485.184 644.239,487.06 642.545,487.619C632.18,491.044 637.215,505.692 639.6,506.543C645.914,508.795 646.672,493.09 656.253,493.512C663.419,493.828 663.788,499.759 661.455,503.64C655.571,513.43 645.881,510.773 650.629,522.594C654.834,533.065 651.107,539.466 653.228,548.255C655.418,557.328 660.631,559.892 663.226,562.31C672.197,570.668 674.131,575.067 685.29,566.983C691.105,562.77 695.572,564.394 696.836,566.17C701.835,573.196 692.835,579.365 699.935,585.519C705.895,590.684 722.616,591.212 731.109,593.725C740.447,596.488 740.269,596.935 749.216,600.827C758.897,605.038 760.985,601.659 765.691,602.58C772.051,603.825 774.075,608.833 774.593,609.837C780.015,620.344 788.817,606.91 790.027,605.477C802.648,590.543 807.819,605.826 816.623,601.923C825.286,598.081 819.902,588.047 827.522,581.573C834.423,575.711 840.634,581.139 851.269,581.883ZM756.051,359.359C756.351,355.964 755.702,355.542 758.273,353.277C760.927,350.939 763.782,351.571 764.266,351.679C768.919,352.709 770.707,357.628 771.869,362.222C773.47,368.552 769.665,371.969 767.171,372.416C762.227,373.301 759.645,367.389 758.429,365.15C756.009,360.691 756.454,360.53 756.051,359.359ZM789.063,459.64C788.682,460.86 788.272,465.156 782.588,469.249C774.176,475.307 761.463,469.412 760.328,459.682C759.815,455.287 760.299,454.612 758.192,446.264C755.017,433.683 765.702,427.46 773.476,435.535C777.436,439.649 776.595,441.354 783.846,447.637C788.55,451.714 789.303,453.337 789.063,459.64ZM849.065,395.269C848.872,396.436 848.993,398.412 846.728,402.737C841.014,413.642 816.411,421.136 812.262,411.744C810.034,406.699 815.21,402.566 821.322,401.749C829.137,400.706 830.009,401.377 836.164,393.675C840.672,388.034 847.228,388.068 848.755,393.602C848.905,394.147 848.914,394.724 849.065,395.269ZM866.264,515.898C866.798,516.004 867.35,515.999 867.884,516.106C881.66,518.855 872.487,547.084 861.661,540.876C858.216,538.9 855.794,525.278 858.308,521.021C861.085,516.319 863.534,516.479 866.264,515.898ZM717.844,579.115C717.467,579.029 709.384,578.166 709.211,572.231C709.062,567.132 716.073,562.88 718.913,561.166C719.759,560.655 725.282,557.322 731.239,560.27C736.277,562.763 735.487,568.338 739.98,572.545C741.775,574.225 743.378,575.077 744.312,575.809C754.649,583.909 746.539,595.341 734.662,586.679C727.976,581.803 728.402,580.338 717.844,579.115ZM665.841,428.492C665.122,429.976 664.335,432.822 657.915,437.491C650.922,442.577 644.659,436.65 649.1,429.978C650.757,427.489 652.275,426.37 654.479,422.116C654.863,421.374 656.044,418.103 659.103,417.245C664.041,415.86 667.808,421.385 666.444,426.679C666.285,427.295 666,427.875 665.841,428.492ZM711.773,458.919C711.23,458.787 710.649,458.879 710.106,458.747C703.423,457.126 705.532,445.945 713.645,440.867C718.991,437.52 725.348,439.997 724.261,446.345C724.139,447.053 723.831,448.855 719.472,453.935C715.028,459.114 714.21,458.257 711.773,458.919ZM813.767,501.089C814.115,501.158 818.09,501.021 820.874,504.989C825.664,511.818 815.288,522.156 807.807,513.698C803.009,508.273 806.731,502.045 812.145,501.194C812.68,501.11 813.232,501.173 813.767,501.089ZM795.134,413.345C796.824,419.934 798.108,419.236 802.918,424.09C812.31,433.567 797.911,446.217 786.595,434.397C785.526,433.28 776.782,422.31 776.075,416.269C774.795,405.327 792.85,396.846 794.758,410.17C794.794,410.423 794.786,410.405 795.134,413.345ZM732.208,366.6C726.016,382.316 714.2,386.888 709.346,378.441C705.051,370.968 714.608,362.557 715.689,361.607C717.107,360.359 724.53,352.356 730.084,357.361C733.906,360.805 732.325,365.865 732.208,366.6ZM830.253,366.162C831.904,366.355 833.228,365.875 836.313,368.183C836.91,368.629 840.19,372.308 836.707,377.53C834.915,380.216 829.095,387.374 827.081,389.043C822.649,392.716 807.391,398.534 804.305,389.417C802.458,383.958 807.94,370.288 816.564,367.653C821.592,366.116 827.032,366.273 830.253,366.162ZM770.894,552.53C771.158,555.641 771.898,556.002 769.766,558.302C765.175,563.253 754.003,557.104 759.669,549.673C761.88,546.773 768.213,547.082 770.337,551.198C770.557,551.626 770.673,552.102 770.894,552.53ZM707.809,482.495C706.255,485.693 699.259,496.878 695.44,499.052C683.883,505.631 676.346,486.89 679.194,479.403C682.183,471.547 689.96,472.193 699.745,472.255C710.307,472.322 708.554,480.42 708.482,480.68C708.31,481.302 707.981,481.874 707.809,482.495ZM851.749,506.456C849.366,511.603 848.207,511.195 847.528,516.672C847.069,520.378 846.744,521.911 843.968,524.49C838.605,529.473 828.692,526.926 830.261,516.752C831.765,506.999 828.355,505.619 832.656,499.829C839.929,490.038 854.715,495.189 852.35,504.651C852.196,505.266 851.903,505.841 851.749,506.456ZM837.795,549.208C839.877,549.737 842.635,549.704 845.913,553.723C850.429,559.26 846.577,567.502 836.333,561.621C830.845,558.471 829.653,551.686 834.723,549.687C835.545,549.362 836.049,549.284 836.167,549.265C836.996,549.136 836.983,549.334 837.795,549.208ZM716.818,540.742C716.741,541.933 717.166,546.179 713.331,549.835C705.962,556.861 696.543,550.404 701.983,539.613C702.302,538.98 704.079,536.543 702.611,533.323C702.37,532.794 699.739,528.545 693.76,530.283C686.708,532.334 675.578,541.063 667.661,529.115C662.256,520.96 669.93,510.287 680.397,513.272C685.529,514.735 694.887,522.113 703.765,508.938C704.322,508.112 706.782,503.224 711.772,501.826C716.539,500.489 726.079,504.049 719.543,518.387C714.858,528.664 715.244,529.239 716.553,537.702C716.591,537.943 716.573,537.927 716.818,540.742ZM732.141,498.67C733.271,495.274 732.887,494.881 735.862,492.915C736.262,492.651 738.72,491.026 741.7,491.56C750.685,493.169 749.489,501.881 747.475,504.557C742.039,511.781 735.482,506.498 734.222,504.774C731.503,501.055 732.225,499.417 732.141,498.67ZM815.907,537.795C814.536,547.124 813.465,547.373 815.879,554.002C816.101,554.61 816.381,555.194 816.604,555.801C821.642,569.512 803.7,571.366 796.379,561.268C792.089,555.351 792.316,554.793 785.515,552.083C784.515,551.684 777.378,549.452 776.34,543.733C775.516,539.187 779.16,535.833 782.079,534.414C786.635,532.2 786.946,532.971 791.429,530.569C793.04,529.705 804.973,521.643 812.948,529.551C816.343,532.918 815.84,536.722 815.907,537.795ZM789.87,380.468C789.254,380.659 788.706,381.037 788.09,381.228C783.619,382.613 778.751,377.687 782.8,370.033C784.787,366.275 785.54,360.271 791.258,359.812C795.899,359.44 799.98,365.412 795.749,374.249C795.635,374.487 795.125,375.552 793.935,376.993C792.209,379.083 792.036,378.875 789.87,380.468ZM852.067,465.566C850.56,469.736 848.216,477.735 842.318,478.484C831.233,479.891 834.201,454.361 846.693,455.644C848.524,455.832 850.555,457.111 851.258,458.244C853.219,461.399 852.192,464.687 852.067,465.566ZM872.386,501.041C871.129,500.613 867.029,500.016 864.992,495.649C864.019,493.563 864.636,490.393 866.404,488.386C873.988,479.779 887.186,489.516 882.171,496.877C878.374,502.45 872.5,501.046 872.386,501.041ZM686.23,411.637C681.328,412.458 676.96,408.398 676.37,402.684C675.007,389.484 676.781,387.549 677.654,386.597C684.295,379.353 702.342,385.606 700.588,395.141C700.11,397.741 699.915,397.672 698.559,399.934C696.964,402.594 693.054,410.494 686.23,411.637ZM891.122,456.59C890.904,457.204 889.079,466.407 879.441,471.118C872.507,474.507 862.681,472.792 861.458,464.291C860.947,460.743 863.359,455.882 867.651,454.884C868.205,454.755 878.21,454.379 876.579,446.289C876.42,445.499 874.053,439.152 879.968,436.249C885.198,433.682 890.85,439.287 891.796,449.246C892.103,452.478 891.133,456.522 891.122,456.59ZM768.969,402.883C765.605,408.894 756.792,411.286 752.037,402.873C748.487,396.592 748.181,396.816 742.925,391.042C732.509,379.602 747.459,369.151 754.844,377.577C757.357,380.445 756.229,382.248 762.964,387.456C768.477,391.58 773.097,395.506 768.969,402.883ZM671.428,460.42C668.92,461.015 668.981,461.407 666.753,461.214C662.024,460.805 655.63,453.623 664.914,447.227C668.99,444.419 686.484,441.795 688.886,452.323C689.197,453.684 689.564,461.345 680.22,459.959C676.533,459.411 676.492,459.182 671.428,460.42ZM803.384,457.516C809.537,458.686 808.306,466.145 812.45,470.033C815.566,472.955 824.684,474.189 825.463,480.793C826.631,490.7 806.618,496.885 798.52,488.469C792.937,482.667 794.684,474.252 794.932,471.836C795.432,466.95 795.626,456.041 803.384,457.516ZM761.656,504.912C763.475,499.78 763.301,499.667 762.502,494.284C762.434,493.826 761.989,490.829 763.323,488.551C770.286,476.656 793.494,493.524 789.658,506.221C787.707,512.68 780.998,511.742 780.705,511.769C776.297,512.173 774.168,516.079 772.658,517.703C767.609,523.129 760.878,519.854 760.138,513.695C759.616,509.348 761.508,505.328 761.656,504.912ZM783.916,593.752C783.512,593.861 776.472,596.966 769.006,592.78C765.06,590.567 763.979,587.041 760.604,580.039C760.191,579.182 756.142,570.78 764.089,568.673C764.186,568.647 764.176,567.863 777.77,568.957C779.146,569.067 787.976,569.778 792.108,578.56C794.588,583.831 792.128,587.297 791.237,588.741C789.044,592.298 784.12,593.673 783.916,593.752ZM855.793,423.109C856.573,423.136 865.622,422.435 866.89,428.105C868.801,436.643 846.951,443.838 843.656,435.793C841.837,431.351 844.589,422.66 854.208,422.94C854.739,422.956 855.262,423.09 855.793,423.109ZM677.284,546.225C677.378,546.246 680.168,546.369 681.997,547.953C687.942,553.098 676.727,563.014 669.876,557.099C664.648,552.584 669.622,546.81 675.702,546.246C676.227,546.197 676.759,546.273 677.284,546.225ZM729.266,474.617C729.657,473.726 731.384,469.794 736.107,464.567C736.766,463.837 741.921,458.133 747.883,461.025C749.678,461.896 755.099,469.665 746.809,476.9C737.582,484.953 730.734,481.227 729.439,477.882C728.75,476.103 729.269,474.679 729.266,474.617ZM807.5,587.64C807.259,587.416 802.572,584.795 804.858,579.805C806.287,576.683 810.16,575.24 812.192,575.621C818.995,576.897 819.09,584.662 815.292,587.302C811.005,590.281 808.851,588.316 807.5,587.64ZM695.279,437.939C695.105,437.921 693.629,438.341 690.831,437.084C687.431,435.557 682.914,429.44 692.132,424.995C699.552,421.417 703.611,416.706 708.299,419.88C713.498,423.4 709.643,434.485 698.323,437.506C698.085,437.57 698.097,437.538 695.279,437.939ZM830.73,444.903C830.58,445.37 828.893,453.486 822.684,455.006C816.056,456.628 810.462,448.991 815.738,442.131C818.056,439.117 818.248,439.305 820.394,436.193C827.223,426.292 833.606,432.033 831.998,440.297C831.722,441.712 831.709,441.694 830.73,444.903ZM744.422,411.981C746.165,414.473 752.173,422.905 745.345,428.94C740.31,433.391 727.094,433.153 722.639,419.127C721.396,415.213 721.704,415.104 719.709,411.501C716.46,405.632 717.519,396.857 728.213,397.365C734.624,397.67 738.161,403.75 741.936,408.611C742.141,408.875 743.187,410.215 744.422,411.981ZM752.113,545.249C752.023,550.031 750.943,552.223 747.596,553.905C745.69,554.863 740.396,555.789 736.273,549.424C735.793,548.683 734.317,545.798 731.562,542.029C721.744,528.6 730.123,523.611 734.404,521.586C741.261,518.342 752.086,520.955 753.25,531.793C753.331,532.547 753.077,535.791 753.049,536.138C752.489,540.719 752.199,540.654 752.113,545.249ZM582.104,690.744C582.897,701.224 585.863,700.437 587.639,708.656C589.858,718.923 582.87,725.114 586.439,729.137C588.75,731.742 597.117,730.222 599.328,725.292C601.362,720.757 601.709,715.407 612.814,713.638C622.896,712.032 625.77,707.055 633.668,705.391C634.39,705.239 645.983,702.822 652.551,716.568C657.664,727.267 660.728,728.057 659.196,732.731C658.175,735.847 650.278,743.647 636.56,731.468C634.464,729.608 627.692,723.269 622.613,730.851C618.657,736.758 621.287,740.899 609.666,744.456C608.096,744.937 605.561,745.37 603.265,747.066C599.361,749.95 597.778,754.956 606.587,757.363C616.29,760.014 622.441,765.155 627.056,759.24C628.286,757.664 629.208,749.709 635.173,748.785C643.492,747.496 648.021,763.101 633.825,768.923C633.19,769.184 626.173,771.21 626.489,776.23C626.885,782.515 642.101,789.331 650.263,786.791C656.605,784.818 667.778,775.267 658.156,765.354C657.388,764.563 649.339,758.248 657.246,751.635C665.62,744.633 679.343,749.267 680.625,755.161C681.747,760.317 674.45,765.22 676.43,770.003C678.432,774.836 686.269,774.396 685.784,780.702C685.382,785.935 678.141,786.981 677.3,787.102C674.268,787.54 674.028,786.908 671.532,788.675C665.294,793.09 667.51,799.965 675.754,800.05C676.752,800.06 677.75,800.018 678.748,800.013C685.545,799.98 690.486,802.381 693.296,794.097C693.478,793.559 694.764,784.078 704.297,782.593C708.319,781.966 711.422,784.796 719.406,781.071C720.619,780.505 724.926,777.972 726.727,774.735C731.367,766.397 727.408,758.98 735.808,757.045C743.464,755.282 745.704,767.685 753.756,768.708C761.964,769.751 764.015,757.59 759.26,747.981C758.177,745.792 752.301,736.627 753.447,723.725C754.526,711.582 763.376,707.038 756.905,693.672C751.615,682.746 739.909,682.158 742.157,665.311C743.872,652.462 744.213,647.872 740.143,641.325C739.723,640.648 735.562,634.695 728.212,634.16C720.566,633.605 710.981,638.625 708.33,627.858C708.215,627.391 707.577,622.028 702.641,620.69C698.283,619.508 693.237,624.5 692.614,625.117C692.077,625.648 685.794,633.525 678.648,631.016C676.022,630.094 673.619,626.631 674.708,623.403C675.366,621.451 680.121,615.587 676.66,611.783C675.58,610.596 671.43,608.875 666.999,611.646C660.767,615.543 653.219,626.975 643.247,616.766C643.241,616.76 636.954,608.523 630.972,611.708C622.68,616.123 631.557,624.394 624.377,630.262C619.532,634.222 609.433,627.289 604.072,635.459C602.642,637.64 601.053,643.998 606.68,644.774C607.96,644.951 615.916,643.838 616.692,650.286C617.046,653.231 614.446,656.496 611.29,657.833C602.254,661.658 597.192,661.755 586.658,678.376C583.212,683.814 582.686,685.635 582.104,690.744ZM657.789,692.754C657.266,692.676 654.996,693.13 652.965,691.019C646.835,684.649 662.239,672.218 667.263,679.971C667.572,680.447 669.201,684.349 665.836,688.245C662.288,692.352 659.368,692.336 657.789,692.754ZM677.058,722.906C674.778,722.038 674.745,722.137 672.677,720.855C671.721,720.262 670.369,718.964 669.634,717.834C662.215,706.422 670.931,689.954 680.263,692.195C686.743,693.75 688.483,702.012 688.806,702.91C690.085,706.459 696.501,715.444 688.072,721.256C682.862,724.849 677.532,722.987 677.058,722.906ZM630.838,669.137C627.626,668.342 627.292,668.91 624.914,666.582C622.92,664.63 622.884,662.64 622.877,662.257C622.797,657.91 628.599,655.202 629.309,654.871C638.428,650.616 635.838,644.145 639.427,640.885C647.359,633.678 661.857,647.405 657.328,660.608C652.662,674.211 641.86,670.427 630.838,669.137ZM705.735,695.925C704.421,695.727 703.191,696.143 699.628,693.927C697.709,692.734 696.75,691.167 696.57,690.872C695.093,688.458 691.952,683.191 701.063,674.062C708.559,666.553 707.648,665.87 710.267,660.76C711.671,658.02 715.149,654.731 719.384,655.557C723.214,656.303 724.717,659.361 725.768,663.615C728.739,675.629 728.041,684.511 717.907,690.988C709.359,696.452 708.048,695.676 705.735,695.925ZM692.869,752.227C692.047,747.906 692.31,747.376 684.742,741.759C681.916,739.661 679.403,732.442 689.335,730.116C698.138,728.055 700.055,727.324 703.551,720.423C708.039,711.561 717.238,713.086 719.161,717.789C723.241,727.763 706.28,731.328 706.912,740.274C707.421,747.481 716.817,748.594 715.917,759.721C715.041,770.539 698.345,772.71 693.589,764.352C691.192,760.14 692.334,759.85 692.869,752.227ZM743.784,739.047C743.486,739.397 742.52,742.265 737.235,743.152C726.2,745.004 721.024,733.444 730.028,728.777C732.763,727.359 737.118,727.026 740.438,729.471C746.794,734.152 744.222,738.002 743.784,739.047ZM671.934,657.744C671.474,651.066 670.233,651.047 671.256,647.252C673.106,640.382 680.956,638.232 686.278,639.645C689.45,640.487 698.98,643.148 698.029,656.234C697.924,657.692 697.36,665.448 687.855,671.41C684.814,673.318 680.071,676.224 675.395,673.416C668.813,669.464 671.705,662.883 672.004,659.202C672.043,658.717 671.895,658.229 671.934,657.744ZM743.661,707.49C743.458,707.717 742.504,709.911 738.623,711.394C729.998,714.691 720.123,703.859 731.614,695.764C741.263,688.966 747.583,699.327 744.053,706.907C743.954,707.12 743.76,707.278 743.661,707.49ZM609.88,702.057C609.797,702.028 605.388,701.095 602.839,697.815C602.199,696.991 601.112,694.292 601.351,692.304C602.808,680.164 628.262,675.449 631.542,682.137C634.271,687.699 627.227,692.789 626.206,693.701C616.994,701.924 615.34,702.206 609.88,702.057ZM975.732,663.154C972.125,663.656 971.755,663.267 966.569,666.449C957.44,672.049 948.951,662.816 956.64,656.778C961.327,653.097 968.257,656.798 977.274,650.279C981.77,647.03 980.691,640.471 972.754,638.238C962.582,635.376 950.478,652.008 941.752,640.874C938.084,636.195 943.174,629.657 940.331,624.474C936.35,617.214 926,612.799 914.256,613.055C906.951,613.214 904.164,614.089 896.374,608.084C893.226,605.657 885.947,599.633 871.04,611.619C859.631,620.792 841.194,627.109 836.489,629.704C832.096,632.127 827.893,633.575 822.746,642.748C816.768,653.401 806.518,651.666 801.92,653.653C798.099,655.304 793.478,658.31 793.365,665.235C793.279,670.559 802.692,682.352 809.063,679.734C816.815,676.549 808.968,668.568 814.156,664.229C817.432,661.488 824.851,662.867 826.946,672.81C828.75,681.373 828.486,682.053 835.737,686.974C841.136,690.639 841,701.481 827.205,700.384C816.614,699.541 816.088,704.384 810.609,701.467C806.809,699.444 806.123,691.181 803.296,689.197C802.904,688.921 799.84,686.77 797.41,688.086C793.857,690.008 790.903,696.291 796.718,707.502C799.053,712.003 799.175,711.903 801.594,716.36C803.695,720.23 806.698,715.828 807.843,714.861C818.034,706.252 830.876,719.889 820.961,724.541C814.573,727.538 804.92,720.925 801.731,726.738C798.388,732.833 798.227,742.199 801.153,748.026C802.27,750.251 805.706,757.092 821.09,771.917C824.741,775.435 831.429,780.553 833.579,781.596C842.582,785.962 846.513,782.106 851.02,792.85C856.67,806.317 866.666,794.368 867.804,792.795C873.087,785.494 873.692,784.962 874.331,784.401C879.571,779.798 888.468,780.397 888.871,791.247C888.885,791.623 888.476,798.002 891.537,799.21C896.727,801.258 897.016,794.245 908.173,786.641C911.167,784.6 918.466,780.178 912.421,775.186C907.89,771.444 901.118,774.388 895.023,768.457C886.645,760.304 895.018,745.69 904.177,751.534C909.621,755.008 907.939,756.848 913.183,760.618C918.902,764.73 926.362,761.012 930.403,767.447C932.096,770.142 929.3,774.928 936.656,776.622C943.731,778.251 951.4,772.513 943.831,763.079C942.895,761.913 941.317,760.521 940.064,756.657C936.861,746.78 949.136,730.686 962.576,738.152C965.224,739.624 970.027,743.154 973.543,739.559C976.515,736.52 975.818,729.928 969.825,726.628C964.174,723.517 960.235,724.938 956.775,720.378C954.612,717.527 956.026,711.095 968.161,712.497C970.028,712.712 973.369,713.616 977.169,711.615C979.661,710.303 985.144,704.031 980.086,696.864C977.648,693.409 973.483,690.536 974.534,686.343C974.98,684.561 978.673,680.189 985.103,684.175C988.437,686.242 993.337,690.423 997.794,684.44C999.691,681.893 1003.359,665.774 989.269,664.88C983.864,664.537 983.91,664.357 978.823,663.37C978.58,663.323 978.594,663.354 975.732,663.154ZM848.951,770.256C849.329,768.228 849.115,766.121 852.127,763.52C857.561,758.83 861.528,761.59 862.196,762.055C872.218,769.027 861.92,784.517 854.566,780.184C849.019,776.915 849.074,771.109 848.951,770.256ZM935.831,698.404C935.816,697.595 936.7,695.377 934.149,691.968C932.507,689.774 932.391,689.896 931.293,688.734C931.215,688.651 927.696,685.206 927.575,681.756C927.224,671.712 946.07,670.909 952.547,680.724C960.752,693.157 948.261,706.982 947.763,707.635C940.866,716.661 941.057,721.895 935.053,724.839C925.998,729.279 911.825,714.487 916.078,707.426C918.665,703.131 922.609,703.502 924.818,703.684C932.34,704.304 933.498,703.667 935.831,698.404ZM960.13,699.847C960.233,699.281 960.088,698.689 960.191,698.123C960.976,693.826 966.682,693.17 969.392,695.641C973.349,699.249 969.453,706.19 963.804,704.117C960.998,703.088 961.344,702.559 960.13,699.847ZM837.126,755.379C837.212,756.76 837.762,758.652 836.438,761.356C835.85,762.557 829.882,771.104 820.3,754.932C814.05,744.383 825.314,740.309 830.707,744.042C834.847,746.907 835.639,750.213 837.126,755.379ZM834.225,657.698C834.621,655.815 835.02,648.958 843.875,644.503C856.399,638.203 877.721,650.785 871.26,659.584C867.887,664.178 862.66,661.851 860.131,661.209C852.159,659.187 849.012,664.059 843.52,666.159C839.471,667.707 837.006,665.253 836.607,664.856C833.679,661.941 834.253,658.236 834.225,657.698ZM902.477,737.766C901.858,737.908 901.285,738.22 900.666,738.362C896.362,739.349 888.058,734.677 893.141,725.185C897.275,717.466 908.492,722.067 907.756,731.2C907.376,735.914 902.857,737.56 902.477,737.766ZM926.388,732.129C926.601,732.219 932.018,733.006 931.724,740.222C931.423,747.631 923.401,755.319 917.912,748.719C914.242,744.307 918.246,732.441 924.695,732.03C925.259,731.994 925.824,732.165 926.388,732.129ZM863.879,679.006C863.857,679.046 863.046,681.735 860.126,682.885C856.691,684.238 849.408,679.963 854.238,672.74C856.311,669.641 861.884,669.692 864.037,674.546C864.194,674.901 864.434,676.72 864.365,677.209C864.278,677.824 863.966,678.392 863.879,679.006ZM905.541,701.705C904.476,702.3 898.169,705.827 890.321,702.591C884.371,700.137 882.213,693.449 889.048,689.857C890.574,689.055 902.699,687.535 905.114,688.267C910.191,689.806 912.312,696.095 906.56,701.011C906.247,701.278 905.853,701.438 905.541,701.705ZM866.902,749.187C867.016,748.667 866.961,748.119 867.075,747.599C868.557,740.788 879.53,741.635 880.899,747.842C882.223,753.844 875.307,757.078 871,754.734C867.325,752.734 866.959,749.335 866.902,749.187ZM882.164,657.713C882.199,656.72 882.246,655.728 882.274,654.734C882.591,643.156 875.404,639.619 873.497,635.376C867.36,621.725 894.732,617.935 899.535,626.059C905.057,635.4 893.618,643.111 899.368,650.156C903.661,655.416 911.678,653.154 915.69,652.687C937.677,650.128 935.831,661.596 934.177,664.008C931.181,668.375 926.465,668.35 923.325,668.83C911.376,670.655 906.107,678.113 896.365,675.323C884.031,671.79 881.598,666.957 882.164,657.713ZM920.533,641.805C920.467,641.836 915.085,645.675 911.539,639.597C908.796,634.894 914.707,621.546 924.74,626.269C924.972,626.378 932.527,630.186 927.558,636.595C927.002,637.311 925.41,638.646 925.212,638.812C922.471,641.109 921.205,641.455 920.533,641.805ZM880.162,714.376C886.804,721.603 879.509,726.287 873.725,725.457C865.549,724.286 864.574,724.179 859.729,730.886C851.144,742.773 839.644,732.894 841.35,711.816C842.281,700.313 855.91,684.026 867.907,692.043C871.48,694.431 872.725,701.739 872.892,702.662C874.331,709.584 875.367,709.16 880.162,714.376ZM551.157,417.08C561.43,415.854 563.893,417.982 567.485,414.48C570.136,411.896 570.871,403.838 578.186,402.419C583.803,401.329 584.813,405.535 593.39,399.953C595.995,398.258 603.912,390.15 604.87,388.951C610.268,382.204 607.961,374.271 606.278,371.543C604.746,369.061 601.937,366.372 601.513,365.966C591.024,355.93 582.672,354.43 572.641,345.316C571.232,344.036 558.285,329.837 549.689,332.012C543.481,333.582 545.215,339.976 543.413,342.531C536.518,352.302 522.494,340.753 516.131,348.26C512.068,353.055 518.597,358.939 519.882,362.192C522.831,369.656 515.695,373.142 512.767,376.243C508.414,380.854 507.951,387.014 510.367,390.957C515.189,398.828 521.567,397.057 525.31,400.284C531.962,406.021 525.644,411.256 525.449,411.457C525.101,411.817 522.028,414.993 524.398,417.627C529.24,423.01 536.767,418.772 551.157,417.08ZM525.864,377.364C526.827,376.5 529.843,373.372 533.232,374.306C535.415,374.907 536.623,377.809 536.468,380.263C535.916,389.022 525.432,391.201 522.858,386.185C521.223,383 522.89,380.647 525.864,377.364ZM546.165,390.665C546.288,389.186 545.98,384.814 548.63,382.14C554.367,376.352 563.451,380.659 560.582,390.858C559.544,394.546 559.507,394.507 558.838,398.265C556.316,412.431 539.195,408.296 543.99,396.85C545.263,393.811 545.283,393.841 546.165,390.665ZM584.401,389.692C584.226,389.728 580.602,391.227 576.595,389.6C571.924,387.703 568.815,380.569 579.677,375.602C579.824,375.535 588.873,370.506 593.769,375.2C597.335,378.619 596.345,384.922 587.54,388.473C585.977,389.104 585.989,389.076 584.401,389.692ZM564.753,369.089C558.731,368.273 558.76,367.211 552.749,368.241C552.085,368.355 546.432,369.323 544.805,365.471C542.956,361.09 545.828,358.015 548.86,353.69C553.932,346.455 557.424,347.668 566.547,354.328C569.267,356.313 569.548,356.031 571.48,358.768C575.066,363.849 570.339,367.592 567.852,368.509C566.121,369.147 564.874,369.067 564.753,369.089ZM495.234,407.066C495.098,407.817 493.72,411.089 495.691,414.787C498.712,420.453 510.202,416.635 505.186,405.541C503.263,401.288 498.21,400.475 495.766,405.758C495.568,406.185 495.432,406.639 495.234,407.066ZM743.255,787.23C743.767,787.154 744.293,787.215 744.805,787.139C749.257,786.476 749.959,782.308 746.21,779.303C739.401,773.846 729.897,782.366 737.486,786.216C738.821,786.894 742.788,787.195 743.255,787.23ZM581.224,546.106C580.665,546.039 576.162,546.328 573.161,542.702C568.408,536.959 577.573,532.537 578.424,532.127C580.962,530.902 585.571,528.98 585.242,522.793C585.059,519.363 582.746,516.843 585.685,512.202C587.77,508.909 594.591,506.792 597.798,512.219C598.01,512.576 599.77,515.553 601.04,516.266C604.832,518.392 611.559,515.606 610.759,503.292C609.93,490.536 595.969,489.26 597.688,476.244C598.408,470.789 602.972,452.995 592.79,443.748C585.434,437.067 578.065,444.741 575.247,446.244C564.225,452.122 558.979,444.47 549.654,442.163C548.979,441.996 544.012,439.885 533.408,442.423C522.667,444.995 511.986,453.429 510.344,454.725C501.031,462.079 501.1,462.168 500.215,462.698C489.48,469.117 488.807,467.815 484.212,470.922C483.557,471.365 477.773,475.276 481.317,480.378C482.815,482.534 492.811,489.363 486.745,497.246C486.725,497.272 482.511,501.976 476.199,502.727C476.176,502.729 469.855,502.338 466.308,505.393C463.323,507.965 463.568,511.916 462.568,518.222C459.972,534.597 479.096,533.245 479.839,542.189C480.561,550.88 462.942,552.154 464.438,560.207C465.437,565.587 474.024,563.736 477.504,569.389C480.209,573.783 474.389,577.628 473.335,579.798C470.389,585.861 477.172,589.586 482.142,600.801C483.872,604.706 490.051,622.062 501.701,626.371C508.029,628.711 510.71,625.018 516.717,626.394C517.304,626.529 522.265,627.665 524.181,627.381C528.733,626.707 529.584,622.289 529.704,621.664C530.002,620.116 529.455,614.516 536.368,611.542C541.094,609.509 550.39,613.269 550.289,624.759C550.227,631.872 547.608,644.213 555.786,645.263C558.741,645.642 563.429,642.915 565.17,635.351C565.549,633.7 565.365,626.695 577.181,617.828C578.531,616.814 579.447,616.71 583.144,613.164C593.143,603.57 586.278,595.301 575.495,599.826C573.266,600.762 564.826,605.839 560.691,599.009C557.725,594.11 564.517,583.826 575.104,586.359C580.432,587.633 583.453,590.788 591.4,585.238C607.015,574.332 609.544,588.516 618.949,584.678C628.177,580.912 625.887,558.518 612.911,565.067C607.933,567.579 605.646,569.491 600.591,566.49C595.539,563.49 594.332,555.615 602.342,551.408C602.786,551.175 613.8,546.729 612.915,540.723C612.517,538.02 605.731,529.584 596.282,537.787C589.573,543.611 589.157,544.884 581.224,546.106ZM477.193,519.766C477.591,517.145 477.287,517.06 478.176,515.462C478.383,515.089 479.737,512.656 482.126,511.878C489.194,509.574 495.635,517.87 493.301,524.467C492.39,527.04 486.077,532.592 480.098,526.368C477.25,523.403 477.331,520.415 477.193,519.766ZM566.346,554.879C568.655,554.714 570.824,554.349 573.921,555.172C583.956,557.837 586.543,570.971 572.119,574.695C560.769,577.624 560.848,578.41 555.288,585.388C542.2,601.816 528.567,585.751 531.07,573.596C531.401,571.988 532.833,565.035 546.816,560.436C556.481,557.257 556.396,557.034 566.346,554.879ZM510.957,611.717C508.888,612.563 505.305,614.961 500.241,611.261C498.325,609.861 495.705,604.952 500.432,599.404C502.544,596.925 503.001,597.332 506.649,592.007C508.662,589.069 510.099,583.498 515.249,582.743C518.734,582.232 521.928,584.978 522.929,587.152C523.479,588.343 527.803,597.726 525.015,603.415C522.789,607.958 518.773,608.524 510.957,611.717ZM516.51,492.205C512.095,494.063 506.724,496.474 502.286,490.851C498.148,485.606 500.858,476.57 509.22,477.92C514.434,478.762 514.412,478.858 519.719,478.637C527.561,478.311 528.314,486.5 521.378,489.998C520.997,490.19 521.047,490.295 516.51,492.205ZM581.432,476.936C580.439,477.042 578.32,477.982 575.203,476.325C573.137,475.227 572.119,472.111 572.624,470.35C574.526,463.718 588.498,456.865 590.578,465.668C590.717,466.257 591.466,469.426 588.356,472.901C586.334,475.16 582.035,476.717 581.432,476.936ZM512.307,515.874C511.757,515.763 511.176,515.878 510.626,515.768C504.088,514.452 504.202,503.725 510.736,503.115C516.229,502.602 520.482,511.278 515.021,514.908C514.365,515.345 513.961,515.489 513.862,515.524C513.089,515.799 513.065,515.604 512.307,515.874ZM558.258,465.922C558.702,467.697 560.066,470.025 557.349,474.814C554.601,479.656 541.991,485.819 538.401,477.495C537.023,474.298 539.433,469.607 539.747,468.995C543.661,461.375 539.912,459.424 544.173,455.777C545.58,454.574 552.519,452.17 556.334,460.995C556.502,461.384 556.477,461.36 558.258,465.922ZM485.813,575.061C485.525,574.155 485.203,573.259 484.923,572.35C482.237,563.632 487.358,561.007 489.829,560.688C498.372,559.583 501.941,572.386 499.082,579.891C498.134,582.377 495.337,584.371 494.381,584.641C488.326,586.351 486.334,576.709 485.813,575.061ZM522.057,554.148C522.044,554.191 521.517,559.399 516.964,560.841C509.561,563.186 508.06,554.931 502.913,550.117C501.61,548.898 489.611,540.043 501.355,531.2C505.839,527.823 509.954,528.559 515.36,529.739C519.902,530.73 538.457,536.073 529.186,544.257C525.576,547.443 525.48,547.31 525.167,547.587C522.144,550.261 522.487,551.647 522.057,554.148ZM557.595,545.656C555.355,547.235 555.422,547.484 552.706,547.855C546.472,548.708 540.627,539.423 551.48,533.686C558.858,529.786 566.832,535.975 558.424,544.932C558.172,545.2 557.846,545.389 557.595,545.656ZM566.004,489.132C566.61,488.906 567.199,488.636 567.808,488.418C578.187,484.695 589.521,492.939 577.927,502.861C567.299,511.956 571.304,517.164 560.334,520.093C550.59,522.696 550.712,523.083 549.854,523.26C537.003,525.907 526.624,501.105 548.358,496.259C557.718,494.172 557.1,492.554 566.004,489.132ZM891.131,215.22C891.177,213.898 891.917,209.243 889.901,206.507C885.989,201.197 879.135,205.472 875.29,206.425C866.825,208.524 861.095,199.012 849.667,192.892C843.264,189.462 834.065,183.23 824.28,181.995C813.962,180.693 816.669,189.144 816.585,191.245C816.318,197.916 806.354,201.253 801.774,200.149C796.281,198.825 794.92,193.553 798.229,189.356C800.26,186.78 800.389,186.921 801.024,186.143C804.266,182.176 802.173,178.781 797.182,180.578C794.456,181.559 782.59,190.495 777.06,198.269C776.679,198.804 772.913,204.099 777.634,206.45C780.887,208.069 783.802,207.155 785.381,206.854C796.198,204.792 796.415,211.92 795.451,213.595C792.026,219.551 784.547,216.804 779.159,217.781C771.754,219.124 760.641,231.642 760.969,236.271C761.39,242.22 769.559,239.944 771.745,243.753C773.567,246.928 772.682,249.03 772.43,251.332C771.79,257.183 776.807,259.596 780.884,255.902C783.247,253.76 784.016,251.562 785.064,249.644C787.296,245.555 792.363,242.764 797.306,243.314C808.911,244.606 810.895,251.762 809.913,255.924C806.777,269.224 781.632,262.767 776.376,266.429C771.988,269.486 778.184,272.064 773.782,281.487C767.438,295.066 781.781,303.377 789.715,304.129C799.547,305.06 802.774,298.576 816.572,309.972C821.918,314.388 832.136,324.675 843.58,314.066C850.783,307.389 852.12,307.557 860.268,307.815C871.596,308.173 873.603,300.846 876.461,290.167C876.853,288.699 878.567,282.293 882.773,272.26C890.098,254.786 901.745,256.52 905.179,245.228C907.822,236.538 900.499,230.353 899.811,229.676C891.426,221.432 891.351,221.018 891.131,215.22ZM817.415,216.189C815.34,213.705 816.027,211.026 816.142,210.58C817.214,206.397 820.916,205.081 831.761,203.322C836.992,202.473 845.463,204.421 846.369,215.287C847.391,227.544 837.077,230.091 831.531,224.464C827.639,220.515 827.732,220.199 822.642,218.796C819.733,217.995 819.355,218.511 817.415,216.189ZM837.132,285.792C837.135,285.924 838.351,295.695 832.742,300.125C828.175,303.731 820.865,301.812 821.189,293.248C821.363,288.659 822.198,287.256 817.631,281.764C807.078,269.07 822.504,263.208 829.086,267.125C836.056,271.273 836.626,277.22 837.132,285.792ZM880.518,239.107C879.226,244.162 873.291,244.852 868.345,240.137C864.906,236.857 864.947,236.865 861.337,233.74C859.901,232.497 855.985,229.431 856.698,224.168C857.425,218.799 865.388,213.424 872.116,221.361C872.224,221.488 872.246,221.456 873.386,223.007C881.894,234.578 880.866,237.742 880.518,239.107ZM825.352,249.918C825.299,249.653 823.078,245.04 827.626,241.239C832.373,237.272 839.619,239.389 840.624,239.683C848.647,242.026 862.119,245.654 863.201,254.256C864.168,261.944 854.307,265.353 843.788,261.638C826.639,255.581 826.27,251.399 825.352,249.918ZM867.146,285.831C867.14,286.124 868.083,290.736 862.969,294.324C857.789,297.958 850.652,293.074 848.723,284.146C846.85,275.474 857.383,269.055 865.251,280.943C866.829,283.327 866.851,284.816 867.146,285.831ZM791.056,279.418C791.273,279.307 791.436,279.108 791.652,278.997C798.437,275.521 806.083,281.19 800.012,290.093C791.056,303.227 778.664,293.271 786.081,283.742C788.303,280.886 788.989,280.813 791.056,279.418ZM798.67,221.888C799.25,222.038 804.135,223.302 805.524,224.887C808.851,228.682 805.414,234.091 798.728,234.421C791.421,234.782 786.708,227.668 793.021,223.175C793.202,223.046 793.948,222.515 795.593,222.132C797.225,221.752 798.66,221.888 798.67,221.888Z"/>
            </g>
            <g transform="matrix(0.597429,0,0,0.521892,-740.719788,-266.345443)">
                <path d="M334.776,549.358C332.339,549.358 330.165,548.866 328.255,547.881C326.345,546.897 324.845,545.47 323.755,543.601C322.665,541.732 322.12,539.461 322.12,536.789L322.12,535.612C322.12,533.151 322.621,530.974 323.623,529.081C324.625,527.189 326.055,525.706 327.912,524.634C329.769,523.562 331.976,523.026 334.53,523.026C336.311,523.026 338.008,523.263 339.619,523.738C341.166,524.193 342.609,524.958 343.944,526.036C344.049,526.121 344.11,526.249 344.11,526.384L344.11,532.316C344.11,532.435 344.063,532.549 343.979,532.633C343.895,532.717 343.781,532.764 343.662,532.764L340.009,532.764C339.789,532.764 339.602,532.605 339.567,532.388L339.044,529.179C339.024,529.053 338.952,528.942 338.845,528.874C338.498,528.65 338.134,528.453 337.756,528.282C337.316,528.082 336.848,527.93 336.35,527.825C335.851,527.719 335.315,527.666 334.741,527.666C333.44,527.666 332.304,527.977 331.331,528.598C330.358,529.219 329.605,530.119 329.072,531.296C328.539,532.474 328.272,533.901 328.272,535.577L328.272,536.789C328.272,538.36 328.548,539.74 329.099,540.929C329.649,542.119 330.42,543.047 331.41,543.715C332.4,544.383 333.546,544.717 334.847,544.717C335.538,544.717 336.241,544.644 336.956,544.497C337.582,544.369 338.19,544.204 338.78,543.998C338.934,543.944 339.047,543.811 339.074,543.65L339.582,540.661C339.619,540.445 339.805,540.288 340.024,540.288L343.697,540.288C343.816,540.288 343.93,540.335 344.014,540.419C344.098,540.503 344.145,540.617 344.145,540.736L344.145,546.5C344.146,546.65 344.071,546.791 343.945,546.874C342.96,547.524 341.723,548.088 340.243,548.576C338.661,549.097 336.839,549.358 334.776,549.358ZM351.854,548.989C351.735,548.989 351.621,548.941 351.537,548.857C351.452,548.773 351.405,548.659 351.405,548.54L351.405,545.749C351.405,545.537 351.554,545.354 351.761,545.31L353.721,544.898C353.929,544.854 354.077,544.671 354.077,544.459L354.077,528.625C354.077,528.377 353.876,528.176 353.629,528.176L350.545,528.176C350.308,528.176 350.111,528.362 350.098,528.599L349.988,530.513C349.974,530.75 349.778,530.936 349.54,530.936L345.754,530.936C345.506,530.936 345.306,530.735 345.306,530.487L345.306,523.843C345.306,523.596 345.506,523.395 345.754,523.395L368.64,523.395C368.888,523.395 369.089,523.596 369.089,523.843L369.089,530.487C369.089,530.735 368.888,530.936 368.64,530.936L364.804,530.936C364.565,530.936 364.368,530.749 364.356,530.51L364.259,528.602C364.247,528.363 364.05,528.176 363.811,528.176L360.695,528.176C360.448,528.176 360.247,528.377 360.247,528.625L360.247,544.459C360.247,544.671 360.396,544.854 360.603,544.898L362.563,545.31C362.77,545.354 362.919,545.537 362.919,545.749L362.919,548.54C362.919,548.659 362.872,548.773 362.788,548.857C362.703,548.941 362.589,548.989 362.47,548.989L351.854,548.989ZM384.848,548.989C384.729,548.989 384.615,548.941 384.531,548.857C384.447,548.773 384.399,548.659 384.399,548.54L384.399,545.749C384.399,545.537 384.548,545.354 384.755,545.31L386.715,544.898C386.923,544.854 387.071,544.671 387.071,544.459L387.071,528.625C387.071,528.377 386.87,528.176 386.623,528.176L383.54,528.176C383.302,528.176 383.106,528.362 383.092,528.599L382.982,530.513C382.969,530.75 382.772,530.936 382.534,530.936L378.748,530.936C378.501,530.936 378.3,530.735 378.3,530.487L378.3,523.843C378.3,523.596 378.501,523.395 378.748,523.395L401.634,523.395C401.882,523.395 402.083,523.596 402.083,523.843L402.083,530.487C402.083,530.735 401.882,530.936 401.634,530.936L397.798,530.936C397.559,530.936 397.362,530.749 397.35,530.51L397.253,528.602C397.241,528.363 397.044,528.176 396.805,528.176L393.69,528.176C393.442,528.176 393.241,528.377 393.241,528.625L393.241,544.459C393.241,544.671 393.39,544.854 393.597,544.898L395.557,545.31C395.764,545.354 395.913,545.537 395.913,545.749L395.913,548.54C395.913,548.659 395.866,548.773 395.782,548.857C395.698,548.941 395.584,548.989 395.465,548.989L384.848,548.989ZM403.765,548.989C403.646,548.989 403.532,548.941 403.448,548.857C403.364,548.773 403.317,548.659 403.317,548.54L403.317,545.734C403.317,545.529 403.456,545.35 403.655,545.299L405.193,544.909C405.392,544.858 405.531,544.679 405.531,544.474L405.531,534.516C405.531,534.304 405.384,534.121 405.177,534.077L403.25,533.666C403.043,533.622 402.895,533.439 402.895,533.227L402.895,530.418C402.895,530.17 403.096,529.969 403.343,529.969L410.928,529.969C411.165,529.969 411.361,530.154 411.375,530.39L411.49,532.289L411.491,532.296C411.496,532.347 411.534,532.389 411.585,532.397C411.635,532.406 411.685,532.379 411.706,532.332C412.095,531.471 412.559,530.821 413.099,530.382C413.726,529.872 414.508,529.618 415.446,529.618C415.703,529.618 416.008,529.638 416.36,529.679C416.586,529.705 416.814,529.745 417.045,529.798C417.266,529.849 417.414,530.057 417.39,530.283L416.862,535.14C416.837,535.375 416.632,535.55 416.395,535.539L414.182,535.436L414.178,535.436C413.57,535.413 413.093,535.48 412.747,535.638C412.447,535.775 412.145,535.99 411.84,536.282C411.752,536.367 411.702,536.483 411.702,536.605L411.701,544.474C411.701,544.679 411.841,544.858 412.039,544.909L413.578,545.299C413.777,545.35 413.916,545.529 413.916,545.734L413.916,548.54C413.916,548.659 413.869,548.773 413.785,548.857C413.701,548.941 413.587,548.989 413.468,548.989L403.765,548.989ZM424.204,549.358C422.364,549.358 420.864,548.836 419.704,547.793C418.544,546.75 417.964,545.362 417.964,543.627C417.964,541.846 418.682,540.387 420.117,539.25C421.553,538.114 423.724,537.545 426.63,537.545L428.168,537.545C428.416,537.545 428.616,537.345 428.616,537.097L428.616,536.42C428.616,535.659 428.4,535.011 427.966,534.478C427.532,533.945 426.847,533.678 425.909,533.678C425.511,533.678 425.139,533.728 424.793,533.828C424.52,533.906 424.268,534.012 424.035,534.145C423.921,534.212 423.842,534.325 423.82,534.455C423.748,534.859 423.586,535.791 423.496,536.312C423.458,536.527 423.272,536.684 423.054,536.684L419.53,536.684C419.285,536.684 419.086,536.488 419.082,536.243L419.006,531.691C419.003,531.51 419.109,531.344 419.276,531.272C420.27,530.843 421.307,530.467 422.385,530.145C423.563,529.793 424.878,529.618 426.331,529.618C428.921,529.618 430.978,530.212 432.501,531.402C434.025,532.591 434.786,534.288 434.786,536.491L434.786,543.504C434.786,543.774 434.789,544.038 434.795,544.295C434.798,544.433 434.807,544.566 434.822,544.697C434.845,544.895 434.995,545.054 435.191,545.087L436.558,545.321C436.773,545.358 436.931,545.545 436.931,545.763L436.931,548.54C436.931,548.659 436.884,548.773 436.8,548.857C436.715,548.941 436.601,548.989 436.482,548.989L429.962,548.989C429.81,548.989 429.668,548.912 429.585,548.785C429.474,548.606 429.356,548.393 429.232,548.145C429.176,548.034 429.126,547.923 429.081,547.812C429.024,547.673 428.901,547.572 428.753,547.543C428.606,547.514 428.453,547.561 428.348,547.668C427.911,548.113 427.438,548.477 426.929,548.76C426.214,549.159 425.306,549.358 424.204,549.358ZM426.103,544.998C426.548,544.998 426.996,544.908 427.447,544.726C427.839,544.568 428.185,544.342 428.484,544.047C428.568,543.963 428.615,543.85 428.615,543.731C428.616,543.308 428.616,542.23 428.616,541.615C428.616,541.496 428.569,541.382 428.485,541.298C428.401,541.214 428.287,541.166 428.168,541.166L426.7,541.166C425.868,541.166 425.227,541.348 424.776,541.711C424.324,542.075 424.099,542.555 424.099,543.153C424.099,543.727 424.286,544.178 424.661,544.506C425.036,544.834 425.517,544.998 426.103,544.998ZM446.481,549.358C444.594,549.358 442.971,548.942 441.612,548.11C440.252,547.278 439.209,546.135 438.483,544.682C437.756,543.229 437.393,541.571 437.393,539.707L437.393,539.303C437.393,537.393 437.771,535.711 438.527,534.258C439.282,532.805 440.337,531.668 441.691,530.848C443.044,530.028 444.623,529.618 446.428,529.618C448.244,529.618 449.8,529.893 451.095,530.444C452.289,530.952 453.251,531.479 453.982,532.027C454.095,532.113 454.161,532.249 454.158,532.391L454.065,537.72C454.06,537.965 453.861,538.161 453.616,538.161L449.832,538.161C449.62,538.161 449.437,538.013 449.393,537.806L448.76,534.852C448.74,534.756 448.689,534.67 448.615,534.606C448.43,534.456 448.203,534.328 447.931,534.223C447.597,534.094 447.319,534.03 447.096,534.03C446.217,534.03 445.52,534.22 445.004,534.601C444.489,534.982 444.119,535.559 443.897,536.332C443.674,537.106 443.563,538.096 443.563,539.303L443.563,539.707C443.563,540.961 443.712,541.949 444.011,542.669C444.31,543.39 444.688,543.903 445.145,544.207C445.602,544.512 446.071,544.664 446.551,544.664C447.289,544.664 447.861,544.48 448.265,544.111C448.612,543.794 448.892,543.349 449.106,542.777C449.171,542.602 449.338,542.487 449.524,542.487C450.649,542.485 454.366,542.485 454.373,542.485L454.409,542.497C454.419,542.553 454.444,542.59 454.444,542.59C454.162,544.102 453.723,545.359 453.125,546.361C452.528,547.363 451.698,548.113 450.638,548.611C449.577,549.109 448.192,549.358 446.481,549.358ZM463.659,543.381L463.659,544.492C463.659,544.689 463.787,544.862 463.975,544.921L465.155,545.287C465.342,545.345 465.47,545.519 465.47,545.715L465.47,548.54C465.47,548.788 465.269,548.989 465.022,548.989L455.723,548.989C455.475,548.989 455.275,548.788 455.275,548.54L455.275,545.735C455.275,545.53 455.415,545.35 455.614,545.3L457.185,544.908C457.385,544.858 457.525,544.678 457.525,544.473L457.525,526.114C457.525,525.902 457.376,525.719 457.169,525.675L455.209,525.263C455.001,525.219 454.853,525.036 454.853,524.824L454.853,522.015C454.853,521.768 455.054,521.567 455.301,521.567L463.211,521.567C463.459,521.567 463.659,521.768 463.659,522.015L463.659,537.631L468.001,533.871L468.001,533.866C467.992,533.86 467.982,533.856 467.971,533.854C467.805,533.821 466.974,533.683 466.477,533.6C466.261,533.564 466.103,533.377 466.103,533.158L466.103,530.418C466.103,530.17 466.304,529.969 466.551,529.969L476.605,529.969C476.853,529.969 477.054,530.17 477.054,530.418L477.054,533.254C477.054,533.453 476.923,533.629 476.732,533.685L474.682,534.285C474.623,534.302 474.569,534.331 474.522,534.37L470.224,537.935L470.227,537.939L475.19,544.632C475.247,544.71 475.329,544.767 475.422,544.795L477.085,545.29C477.275,545.346 477.406,545.521 477.406,545.72L477.406,548.54C477.406,548.659 477.358,548.773 477.274,548.857C477.19,548.941 477.076,548.989 476.957,548.989L467.764,548.989C467.516,548.989 467.316,548.788 467.316,548.54L467.316,545.95C467.316,545.759 467.436,545.589 467.617,545.526L468.383,545.259C468.416,545.248 468.447,545.232 468.476,545.214L468.441,545.157L465.977,541.598C465.956,541.567 465.939,541.535 465.926,541.501L463.659,543.381ZM487.291,549.358C485.428,549.358 483.802,548.956 482.413,548.154C481.024,547.351 479.946,546.252 479.179,544.858C478.411,543.463 478.027,541.887 478.027,540.129L478.027,539.479C478.027,537.545 478.367,535.837 479.047,534.355C479.726,532.872 480.723,531.712 482.035,530.874C483.348,530.037 484.959,529.618 486.869,529.618C488.592,529.618 490.048,529.949 491.237,530.611C492.427,531.273 493.332,532.246 493.953,533.529C494.574,534.812 494.885,536.391 494.885,538.266L494.885,540.999C494.885,541.118 494.837,541.232 494.753,541.316C494.669,541.4 494.555,541.448 494.436,541.448L484.427,541.448C484.423,541.448 484.419,541.451 484.418,541.455C484.418,541.459 484.419,541.463 484.423,541.465L484.408,541.571C484.502,542.168 484.704,542.699 485.015,543.162C485.325,543.624 485.756,543.991 486.307,544.26C486.857,544.53 487.537,544.664 488.346,544.664C489.142,544.664 489.925,544.574 490.692,544.392C491.33,544.241 491.999,544.015 492.697,543.714C492.81,543.666 492.937,543.665 493.05,543.713C493.163,543.761 493.251,543.853 493.295,543.967L494.409,546.919C494.483,547.114 494.412,547.335 494.238,547.451C493.441,547.97 492.496,548.407 491.404,548.76C490.174,549.159 488.803,549.358 487.291,549.358ZM484.426,537.633L488.811,537.633C488.93,537.633 489.044,537.586 489.128,537.502C489.212,537.418 489.26,537.304 489.26,537.185L489.26,537.176C489.26,536.496 489.192,535.928 489.058,535.471C488.923,535.014 488.691,534.668 488.363,534.434C488.035,534.2 487.584,534.082 487.01,534.082C486.389,534.082 485.893,534.232 485.524,534.531C485.155,534.829 484.886,535.24 484.716,535.761C484.547,536.28 484.427,536.871 484.357,537.534C484.353,537.568 484.374,537.599 484.406,537.61L484.426,537.633ZM496.992,548.989C496.873,548.989 496.759,548.941 496.675,548.857C496.591,548.773 496.544,548.659 496.544,548.54L496.544,545.734C496.544,545.529 496.683,545.35 496.882,545.299L498.42,544.909C498.619,544.858 498.758,544.679 498.758,544.474L498.758,534.516C498.758,534.304 498.61,534.121 498.404,534.077L496.477,533.666C496.27,533.622 496.122,533.439 496.122,533.227L496.122,530.418C496.122,530.17 496.322,529.969 496.57,529.969L504.155,529.969C504.392,529.969 504.588,530.154 504.602,530.39L504.717,532.289L504.718,532.296C504.722,532.347 504.761,532.389 504.812,532.397C504.862,532.406 504.912,532.379 504.933,532.332C505.322,531.471 505.786,530.821 506.326,530.382C506.953,529.872 507.735,529.618 508.672,529.618C508.93,529.618 509.235,529.638 509.587,529.679C509.813,529.705 510.041,529.745 510.272,529.798C510.493,529.849 510.641,530.057 510.616,530.283L510.089,535.14C510.064,535.375 509.859,535.55 509.622,535.539L507.409,535.436L507.405,535.436C506.796,535.413 506.32,535.48 505.974,535.638C505.674,535.775 505.372,535.99 505.067,536.282C504.979,536.367 504.929,536.483 504.929,536.605L504.928,544.474C504.928,544.679 505.068,544.858 505.266,544.909L506.805,545.299C507.004,545.35 507.143,545.529 507.143,545.734L507.143,548.54C507.143,548.659 507.096,548.773 507.012,548.857C506.928,548.941 506.814,548.989 506.695,548.989L496.992,548.989Z"/>
            </g>
        </g>
    </g>
</svg>
