<?xml version="1.0" encoding="UTF-8" standalone="no"?>
<!DOCTYPE svg PUBLIC "-//W3C//DTD SVG 1.1//EN" "http://www.w3.org/Graphics/SVG/1.1/DTD/svg11.dtd">
<svg width="100%" height="100%" viewBox="0 0 167 99" version="1.1" xmlns="http://www.w3.org/2000/svg" xmlns:xlink="http://www.w3.org/1999/xlink" xml:space="preserve" xmlns:serif="http://www.serif.com/" style="fill-rule:evenodd;clip-rule:evenodd;stroke-linejoin:round;stroke-miterlimit:2;">
    <g transform="matrix(1,0,0,1,-742.320224,-796.352483)">
        <g transform="matrix(1.915709,0,0,2.192982,1318.007663,48.245614)">
            <g transform="matrix(0.986815,0,0,0.958943,-1013.975807,-355.056045)">
                <path d="M810.471,726C810.611,726 810.746,726.05 810.845,726.139C810.944,726.228 811,726.349 811,726.476C811,731.095 811,767.905 811,772.524C811,772.651 810.944,772.772 810.845,772.861C810.746,772.95 810.611,773 810.471,773C803.529,773 730.471,773 723.529,773C723.389,773 723.254,772.95 723.155,772.861C723.056,772.772 723,772.651 723,772.524C723,767.905 723,731.095 723,726.476C723,726.349 723.056,726.228 723.155,726.139C723.254,726.05 723.389,726 723.529,726C730.471,726 803.529,726 810.471,726Z"/>
            </g>
        </g>
        <g transform="matrix(1.915709,0,0,2.192982,1318.007663,48.245614)">
            <g transform="matrix(1.684783,0,0,1.684783,226.933174,-174.928244)">
                <g transform="matrix(0.462154,0,0,0.403721,-579.641032,17.433264)">
                    <path d="M602.154,754.284C599.717,754.284 597.543,753.792 595.633,752.807C593.723,751.823 592.223,750.396 591.133,748.527C590.043,746.658 589.498,744.387 589.498,741.716C589.498,741.716 589.498,740.538 589.498,740.538C589.498,738.077 589.999,735.9 591.001,734.008C592.003,732.115 593.433,730.633 595.29,729.56C597.147,728.488 599.354,727.952 601.908,727.952C603.689,727.952 605.386,728.189 606.997,728.664C608.589,729.133 610.07,729.931 611.439,731.058C611.47,731.084 611.488,731.121 611.488,731.162C611.488,731.775 611.488,736.679 611.488,737.556C611.488,737.592 611.474,737.626 611.449,737.651C611.424,737.676 611.39,737.69 611.354,737.69C610.688,737.69 607.738,737.69 607.12,737.69C607.054,737.69 606.998,737.643 606.988,737.578C606.894,737.001 606.468,734.389 606.4,733.968C606.394,733.932 606.373,733.899 606.342,733.878C605.958,733.622 605.555,733.399 605.134,733.208C604.694,733.009 604.226,732.856 603.728,732.751C603.229,732.645 602.693,732.593 602.119,732.593C600.818,732.593 599.682,732.903 598.709,733.524C597.736,734.145 596.983,735.045 596.45,736.222C595.917,737.4 595.65,738.827 595.65,740.503C595.65,740.503 595.65,741.716 595.65,741.716C595.65,743.286 595.926,744.666 596.477,745.855C597.027,747.045 597.798,747.973 598.788,748.641C599.778,749.309 600.924,749.643 602.225,749.643C602.916,749.643 603.619,749.57 604.334,749.424C605.023,749.282 605.69,749.095 606.335,748.862C606.38,748.845 606.413,748.806 606.421,748.758C606.5,748.295 606.911,745.876 607.004,745.325C607.015,745.261 607.071,745.214 607.137,745.214C607.755,745.214 610.721,745.214 611.389,745.214C611.463,745.214 611.523,745.274 611.523,745.348C611.523,746.21 611.523,750.957 611.523,751.594C611.523,751.638 611.502,751.68 611.465,751.705C610.454,752.391 609.173,752.99 607.621,753.502C606.039,754.023 604.217,754.284 602.154,754.284Z" style="fill:white;fill-rule:nonzero;"/>
                    <path d="M612.976,753.915C612.902,753.915 612.842,753.855 612.842,753.781C612.842,753.207 612.842,750.964 612.842,750.427C612.842,750.361 612.891,750.304 612.956,750.294C613.292,750.245 614.268,750.102 614.555,750.059C614.604,750.052 614.645,750.018 614.662,749.971C615.135,748.623 621.72,729.868 622.232,728.411C622.251,728.357 622.302,728.321 622.359,728.321C623.111,728.321 628.096,728.321 628.848,728.321C628.905,728.321 628.956,728.357 628.975,728.411C629.488,729.867 636.089,748.623 636.563,749.971C636.579,750.018 636.621,750.052 636.67,750.059C636.957,750.102 637.932,750.245 638.268,750.294C638.334,750.304 638.383,750.361 638.383,750.427C638.383,750.964 638.383,753.207 638.383,753.781C638.383,753.855 638.323,753.915 638.249,753.915C637.178,753.915 630.025,753.915 628.954,753.915C628.88,753.915 628.82,753.855 628.82,753.781C628.82,753.205 628.82,750.95 628.82,750.422C628.82,750.358 628.866,750.303 628.929,750.291C629.221,750.235 630.019,750.084 630.347,750.022C630.384,750.015 630.416,749.993 630.436,749.961C630.456,749.929 630.461,749.891 630.451,749.854C630.314,749.364 629.86,747.733 629.744,747.316C629.728,747.258 629.675,747.218 629.615,747.218C628.738,747.218 622.475,747.218 621.593,747.218C621.533,747.218 621.479,747.258 621.464,747.317C621.352,747.738 620.919,749.367 620.789,749.856C620.779,749.892 620.785,749.93 620.805,749.961C620.825,749.993 620.857,750.015 620.894,750.022C621.22,750.084 622.02,750.235 622.313,750.291C622.376,750.303 622.422,750.358 622.422,750.422C622.422,750.95 622.422,753.205 622.422,753.781C622.422,753.855 622.362,753.915 622.288,753.915C621.216,753.915 614.048,753.915 612.976,753.915ZM622.846,742.719C622.833,742.76 622.841,742.804 622.866,742.838C622.891,742.873 622.931,742.893 622.974,742.893C623.822,742.893 627.364,742.893 628.214,742.893C628.257,742.893 628.298,742.873 628.323,742.838C628.348,742.804 628.355,742.759 628.342,742.718C627.973,741.574 625.923,735.206 625.902,735.142C625.902,735.142 625.902,735.141 625.902,735.141C625.895,735.117 625.621,734.245 625.621,734.245L625.615,734.245C625.556,734.245 625.504,734.284 625.487,734.34C625.413,734.582 625.225,735.204 625.217,735.229C625.217,735.229 625.217,735.23 625.217,735.23C625.191,735.31 623.205,741.585 622.846,742.719Z" style="fill:white;fill-rule:nonzero;"/>
                    <path d="M639.484,753.915C639.41,753.915 639.35,753.855 639.35,753.781C639.35,753.204 639.35,750.943 639.35,750.42C639.35,750.357 639.394,750.302 639.456,750.289C639.88,750.198 641.455,749.862 641.88,749.771C641.942,749.758 641.986,749.704 641.986,749.64C641.986,748.253 641.986,734.001 641.986,732.613C641.986,732.55 641.942,732.495 641.88,732.482C641.455,732.391 639.88,732.055 639.456,731.965C639.394,731.952 639.35,731.897 639.35,731.834C639.35,731.309 639.35,729.033 639.35,728.455C639.35,728.42 639.364,728.385 639.389,728.36C639.414,728.335 639.448,728.321 639.484,728.321C640.021,728.321 650.351,728.321 651.332,728.321C651.388,728.321 651.439,728.356 651.458,728.409C651.917,729.659 657.122,743.841 657.581,745.091C657.6,745.143 657.651,745.178 657.707,745.178C657.714,745.178 657.719,745.178 657.719,745.178C657.719,745.178 663.229,729.726 663.699,728.41C663.718,728.357 663.768,728.321 663.825,728.321C664.872,728.321 674.294,728.321 675.532,728.321C675.567,728.321 675.602,728.335 675.627,728.36C675.652,728.385 675.666,728.42 675.666,728.455C675.666,729.033 675.666,731.308 675.666,731.834C675.666,731.897 675.622,731.952 675.56,731.965C675.133,732.055 673.545,732.392 673.118,732.482C673.056,732.495 673.012,732.55 673.012,732.613C673.012,734.002 673.012,748.252 673.012,749.64C673.012,749.704 673.056,749.758 673.118,749.771C673.545,749.862 675.133,750.198 675.56,750.289C675.622,750.302 675.666,750.357 675.666,750.42C675.666,750.943 675.666,753.204 675.666,753.781C675.666,753.855 675.606,753.915 675.532,753.915C674.337,753.915 665.534,753.915 664.339,753.915C664.265,753.915 664.205,753.855 664.205,753.781C664.205,753.205 664.205,750.946 664.205,750.421C664.205,750.357 664.25,750.302 664.312,750.289C664.753,750.2 666.417,749.86 666.858,749.771C666.92,749.758 666.965,749.703 666.965,749.639C666.965,749.069 666.965,746.462 666.965,746.41C666.965,746.409 666.965,746.409 666.965,746.408C666.966,746.297 667.105,734.368 667.105,734.368C667.105,734.368 667.101,734.367 667.093,734.366C667.035,734.364 666.982,734.399 666.962,734.453C666.421,735.914 660.29,752.476 659.79,753.827C659.771,753.88 659.721,753.915 659.664,753.915C659.052,753.915 655.609,753.915 654.999,753.915C654.943,753.915 654.893,753.88 654.873,753.828C654.343,752.432 647.559,734.579 647.559,734.579C647.559,734.579 647.558,734.579 647.557,734.579C647.525,734.579 647.495,734.593 647.472,734.616C647.45,734.639 647.438,734.671 647.44,734.703C647.483,735.821 647.85,745.383 647.857,745.563C647.857,745.564 647.857,745.566 647.857,745.568C647.857,745.673 647.857,748.985 647.857,749.638C647.857,749.702 647.903,749.757 647.967,749.769C648.433,749.858 650.253,750.202 650.719,750.291C650.782,750.303 650.828,750.358 650.828,750.422C650.828,750.95 650.828,753.205 650.828,753.781C650.828,753.855 650.768,753.915 650.694,753.915C649.498,753.915 640.679,753.915 639.484,753.915Z" style="fill:white;fill-rule:nonzero;"/>
                </g>
                <g transform="matrix(0.228975,0,0,0.200024,-442.097895,177.172707)">
                    <path d="M595.499,753.915C595.427,753.915 595.359,753.886 595.308,753.836C595.257,753.785 595.229,753.716 595.229,753.644C595.229,752.958 595.229,751.158 595.229,750.531C595.229,750.403 595.318,750.292 595.443,750.266C595.944,750.161 597.185,749.899 597.686,749.794C597.811,749.768 597.9,749.657 597.9,749.529C597.9,747.725 597.9,735.365 597.9,733.373C597.9,733.301 597.872,733.232 597.821,733.182C597.77,733.131 597.702,733.102 597.63,733.102C596.902,733.102 594.911,733.102 594.201,733.102C594.057,733.102 593.939,733.214 593.931,733.357C593.901,733.883 593.832,735.081 593.802,735.607C593.794,735.75 593.675,735.862 593.532,735.862C592.723,735.862 590.228,735.862 589.4,735.862C589.328,735.862 589.259,735.834 589.208,735.783C589.157,735.732 589.129,735.663 589.129,735.591C589.129,734.417 589.129,729.766 589.129,728.592C589.129,728.52 589.157,728.451 589.208,728.4C589.259,728.35 589.328,728.321 589.4,728.321C591.851,728.321 610.19,728.321 612.641,728.321C612.713,728.321 612.782,728.35 612.833,728.4C612.884,728.451 612.912,728.52 612.912,728.592C612.912,729.766 612.912,734.417 612.912,735.591C612.912,735.741 612.791,735.862 612.641,735.862C611.806,735.862 609.275,735.862 608.458,735.862C608.314,735.862 608.195,735.749 608.188,735.605C608.161,735.079 608.1,733.885 608.074,733.359C608.066,733.215 607.947,733.102 607.803,733.102C607.087,733.102 605.073,733.102 604.341,733.102C604.269,733.102 604.2,733.131 604.15,733.182C604.099,733.232 604.07,733.301 604.07,733.373C604.07,735.365 604.07,747.725 604.07,749.529C604.07,749.657 604.16,749.768 604.285,749.794C604.786,749.899 606.026,750.161 606.527,750.266C606.653,750.292 606.742,750.403 606.742,750.531C606.742,751.158 606.742,752.958 606.742,753.644C606.742,753.716 606.714,753.785 606.663,753.836C606.612,753.886 606.543,753.915 606.472,753.915C604.909,753.915 597.061,753.915 595.499,753.915Z" style="fill:white;fill-rule:nonzero;"/>
                    <path d="M614.097,753.915C614.025,753.915 613.956,753.886 613.905,753.836C613.855,753.785 613.826,753.716 613.826,753.644C613.826,752.958 613.826,751.158 613.826,750.531C613.826,750.403 613.916,750.292 614.041,750.266C614.539,750.16 615.768,749.9 616.266,749.794C616.391,749.768 616.48,749.657 616.48,749.53C616.48,747.671 616.48,734.582 616.48,732.724C616.48,732.596 616.391,732.486 616.266,732.459C615.768,732.354 614.539,732.093 614.041,731.988C613.916,731.961 613.826,731.851 613.826,731.723C613.826,731.091 613.826,729.266 613.826,728.574C613.826,728.425 613.947,728.304 614.097,728.303C615.925,728.303 626.412,728.303 626.412,728.303C628.439,728.304 630.197,728.626 631.686,729.27C633.174,729.915 634.322,730.832 635.131,732.021C635.939,733.211 636.344,734.62 636.344,736.249C636.344,737.749 635.937,739.143 635.122,740.432C634.308,741.721 633.191,742.756 631.773,743.535C630.356,744.314 628.739,744.698 626.922,744.686C626.922,744.686 626.921,744.686 626.921,744.686C626.858,744.686 623.857,744.648 622.924,744.637C622.852,744.636 622.782,744.664 622.731,744.715C622.679,744.766 622.65,744.835 622.65,744.908C622.65,745.814 622.65,748.708 622.65,749.53C622.65,749.657 622.74,749.768 622.865,749.794C623.363,749.9 624.592,750.16 625.09,750.266C625.215,750.292 625.305,750.403 625.305,750.531C625.305,751.158 625.305,752.958 625.305,753.644C625.305,753.716 625.276,753.785 625.225,753.836C625.175,753.886 625.106,753.915 625.034,753.915C623.475,753.915 615.656,753.915 614.097,753.915ZM630.226,753.915C630.111,753.915 630.008,753.842 629.97,753.732C629.551,752.518 627.168,745.611 626.676,744.187C626.653,744.119 626.658,744.045 626.689,743.98C626.721,743.915 626.777,743.866 626.845,743.843C627.756,743.532 630.822,742.487 631.708,742.185C631.843,742.138 631.992,742.206 632.046,742.338C632.526,743.513 634.65,748.709 635.009,749.587C635.041,749.667 635.11,749.726 635.193,749.747C635.594,749.849 636.799,750.154 637.282,750.277C637.402,750.308 637.486,750.416 637.486,750.539C637.486,751.156 637.486,752.957 637.486,753.644C637.486,753.794 637.365,753.915 637.216,753.915C636.023,753.915 631.247,753.915 630.226,753.915ZM622.65,739.634C622.65,739.784 622.772,739.905 622.921,739.905C623.793,739.905 626.482,739.905 626.482,739.905C627.678,739.905 628.598,739.627 629.242,739.07C629.887,738.513 630.209,737.708 630.209,736.653C630.209,735.563 629.881,734.687 629.225,734.025C628.568,733.363 627.631,733.032 626.412,733.032C626.412,733.032 623.783,733.032 622.921,733.032C622.772,733.032 622.65,733.153 622.65,733.303C622.65,734.403 622.65,738.534 622.65,739.634Z" style="fill:white;fill-rule:nonzero;"/>
                    <path d="M638.794,753.915C638.645,753.915 638.523,753.794 638.523,753.644C638.523,752.963 638.523,751.185 638.523,750.545C638.523,750.411 638.622,750.297 638.755,750.277C639.123,750.223 639.835,750.118 640.155,750.071C640.254,750.057 640.337,749.988 640.371,749.893C641.014,748.061 647.187,730.481 647.882,728.502C647.92,728.394 648.022,728.321 648.137,728.321C649.107,728.321 653.464,728.321 654.433,728.321C654.548,728.321 654.65,728.394 654.689,728.502C655.385,730.48 661.572,748.061 662.217,749.893C662.251,749.988 662.334,750.057 662.433,750.071C662.752,750.118 663.464,750.223 663.833,750.277C663.966,750.297 664.064,750.411 664.064,750.545C664.064,751.185 664.064,752.963 664.064,753.644C664.064,753.716 664.036,753.785 663.985,753.836C663.934,753.886 663.866,753.915 663.794,753.915C662.412,753.915 656.154,753.915 654.773,753.915C654.701,753.915 654.632,753.886 654.581,753.836C654.53,753.785 654.502,753.716 654.502,753.644C654.502,752.959 654.502,751.167 654.502,750.535C654.502,750.405 654.594,750.294 654.722,750.27C655.02,750.213 655.553,750.112 655.883,750.05C655.957,750.036 656.022,749.991 656.062,749.927C656.102,749.862 656.113,749.784 656.093,749.711C655.936,749.148 655.589,747.9 655.454,747.416C655.421,747.299 655.314,747.218 655.193,747.218C654.054,747.218 648.525,747.218 647.38,747.218C647.257,747.218 647.15,747.3 647.118,747.419C646.989,747.906 646.657,749.153 646.508,749.714C646.489,749.786 646.501,749.864 646.541,749.927C646.581,749.991 646.646,750.035 646.719,750.049C647.049,750.112 647.584,750.213 647.883,750.27C648.011,750.294 648.104,750.405 648.104,750.535C648.104,751.167 648.104,752.959 648.104,753.644C648.103,753.794 647.982,753.915 647.833,753.915C646.449,753.915 640.178,753.915 638.794,753.915ZM648.584,742.541C648.558,742.623 648.573,742.713 648.624,742.783C648.675,742.852 648.756,742.893 648.842,742.893C649.859,742.893 652.69,742.893 653.709,742.893C653.795,742.893 653.876,742.852 653.927,742.782C653.978,742.712 653.993,742.622 653.966,742.54C653.481,741.034 651.612,735.229 651.584,735.142C651.584,735.142 651.584,735.141 651.584,735.14C651.573,735.108 651.303,734.245 651.303,734.245L651.298,734.245C651.238,734.245 651.185,734.284 651.168,734.341C651.095,734.581 650.909,735.193 650.899,735.228C650.899,735.229 650.898,735.23 650.898,735.231C650.864,735.338 649.056,741.051 648.584,742.541Z" style="fill:white;fill-rule:nonzero;"/>
                    <path d="M677.74,754.284C675.303,754.284 673.129,753.792 671.219,752.807C669.309,751.823 667.809,750.396 666.719,748.527C665.629,746.658 665.084,744.388 665.084,741.716C665.084,741.716 665.084,740.538 665.084,740.538C665.084,738.077 665.585,735.9 666.587,734.008C667.589,732.115 669.019,730.633 670.876,729.56C672.733,728.488 674.939,727.952 677.494,727.952C679.275,727.952 680.972,728.189 682.583,728.664C684.156,729.127 685.62,729.911 686.975,731.017C687.038,731.068 687.074,731.145 687.074,731.226C687.074,732.021 687.074,736.296 687.074,737.42C687.074,737.569 686.953,737.69 686.804,737.69C685.991,737.69 683.579,737.69 682.822,737.69C682.689,737.69 682.576,737.594 682.555,737.463C682.438,736.748 682.082,734.557 681.995,734.027C681.983,733.952 681.941,733.886 681.877,733.844C681.509,733.603 681.123,733.39 680.72,733.208C680.28,733.009 679.812,732.856 679.313,732.751C678.815,732.645 678.279,732.593 677.705,732.593C676.404,732.593 675.268,732.903 674.295,733.524C673.322,734.145 672.569,735.045 672.036,736.222C671.503,737.4 671.236,738.827 671.236,740.503C671.236,740.503 671.236,741.716 671.236,741.716C671.236,743.286 671.512,744.666 672.062,745.855C672.613,747.045 673.384,747.973 674.374,748.641C675.364,749.309 676.51,749.643 677.811,749.643C678.502,749.643 679.205,749.57 679.92,749.424C680.582,749.288 681.223,749.11 681.845,748.889C681.937,748.856 682.004,748.776 682.021,748.679C682.118,748.107 682.456,746.114 682.571,745.439C682.593,745.309 682.706,745.214 682.838,745.214C683.595,745.214 686.023,745.214 686.839,745.214C686.988,745.214 687.109,745.335 687.109,745.484C687.109,746.584 687.109,750.7 687.109,751.522C687.11,751.612 687.065,751.696 686.99,751.747C685.989,752.415 684.728,753 683.207,753.502C681.625,754.023 679.803,754.284 677.74,754.284Z" style="fill:white;fill-rule:nonzero;"/>
                    <path d="M696.156,748.143C696.103,748.195 696.03,748.222 695.956,748.219C695.882,748.216 695.812,748.183 695.763,748.127C695.196,747.478 693.511,745.548 692.972,744.931C692.878,744.823 692.884,744.661 692.986,744.56C694.542,743.028 705.566,732.171 705.566,732.171C705.566,732.171 705.567,732.169 705.569,732.165C705.552,732.155 705.534,732.149 705.514,732.148C705.164,732.108 703.563,732.001 702.936,731.959C702.794,731.95 702.684,731.831 702.684,731.689C702.684,731.031 702.684,729.269 702.684,728.592C702.684,728.52 702.712,728.451 702.763,728.4C702.814,728.35 702.882,728.321 702.954,728.321C704.555,728.321 712.766,728.321 714.366,728.321C714.438,728.321 714.507,728.35 714.557,728.4C714.608,728.451 714.637,728.52 714.637,728.592C714.637,729.281 714.637,731.093 714.637,731.723C714.637,731.851 714.547,731.961 714.422,731.988C713.909,732.096 712.632,732.367 712.305,732.436C712.255,732.446 712.209,732.471 712.172,732.507C711.202,733.454 697.967,746.375 696.156,748.143ZM688.997,753.915C688.848,753.915 688.727,753.794 688.727,753.644C688.727,752.958 688.727,751.158 688.727,750.531C688.727,750.403 688.816,750.292 688.941,750.266C689.439,750.16 690.668,749.9 691.166,749.794C691.291,749.768 691.381,749.657 691.381,749.53C691.381,747.671 691.381,734.582 691.381,732.724C691.381,732.596 691.291,732.486 691.166,732.459C690.668,732.354 689.439,732.093 688.941,731.988C688.816,731.961 688.727,731.851 688.727,731.723C688.727,731.093 688.727,729.281 688.727,728.592C688.727,728.442 688.848,728.321 688.997,728.321C690.536,728.321 698.167,728.321 699.706,728.321C699.855,728.321 699.977,728.442 699.977,728.592C699.977,729.283 699.977,731.101 699.977,731.727C699.977,731.853 699.89,731.962 699.767,731.991C699.308,732.097 698.219,732.35 697.76,732.456C697.638,732.485 697.551,732.594 697.551,732.72C697.551,734.564 697.551,747.69 697.551,749.534C697.551,749.66 697.638,749.769 697.76,749.797C698.219,749.904 699.308,750.156 699.767,750.263C699.89,750.291 699.977,750.4 699.977,750.526C699.977,751.15 699.977,752.956 699.977,753.644C699.977,753.794 699.855,753.915 699.706,753.915C698.167,753.915 690.536,753.915 688.997,753.915ZM703.499,753.915C703.35,753.915 703.229,753.794 703.229,753.644C703.229,752.969 703.229,751.216 703.229,750.562C703.229,750.421 703.338,750.303 703.479,750.292C704.096,750.246 705.652,750.129 705.786,750.119C705.792,750.118 705.798,750.118 705.804,750.118C705.813,750.118 705.825,750.118 705.829,750.118C705.829,750.118 705.829,750.118 705.83,750.118C705.823,750.109 700.752,743.169 699.823,741.897C699.741,741.784 699.758,741.627 699.862,741.535C700.557,740.92 703.013,738.744 703.764,738.079C703.821,738.028 703.896,738.004 703.971,738.012C704.047,738.02 704.115,738.058 704.16,738.119C705.347,739.705 712.146,748.798 712.884,749.785C712.926,749.841 712.988,749.878 713.056,749.89C713.447,749.955 714.801,750.183 715.342,750.273C715.473,750.295 715.568,750.408 715.568,750.54C715.568,751.176 715.568,752.961 715.568,753.644C715.568,753.794 715.447,753.915 715.298,753.915C713.664,753.915 705.133,753.915 703.499,753.915Z" style="fill:white;fill-rule:nonzero;"/>
                    <path d="M716.648,753.915C716.576,753.915 716.507,753.886 716.456,753.836C716.405,753.785 716.377,753.716 716.377,753.644C716.377,752.958 716.377,751.158 716.377,750.531C716.377,750.403 716.466,750.292 716.591,750.266C717.089,750.16 718.319,749.9 718.817,749.794C718.942,749.768 719.031,749.657 719.031,749.53C719.031,747.671 719.031,734.582 719.031,732.724C719.031,732.596 718.942,732.486 718.817,732.459C718.319,732.354 717.089,732.093 716.591,731.988C716.466,731.961 716.377,731.851 716.377,731.723C716.377,731.093 716.377,729.281 716.377,728.592C716.377,728.442 716.498,728.321 716.648,728.321C718.886,728.321 734.311,728.321 736.55,728.321C736.621,728.321 736.69,728.35 736.741,728.4C736.792,728.451 736.82,728.52 736.82,728.592C736.82,729.749 736.82,734.276 736.82,735.433C736.82,735.505 736.792,735.574 736.741,735.625C736.69,735.675 736.621,735.704 736.55,735.704C735.721,735.704 733.228,735.704 732.419,735.704C732.275,735.704 732.156,735.591 732.148,735.448C732.122,734.943 732.062,733.828 732.035,733.323C732.027,733.18 731.909,733.067 731.765,733.067C730.692,733.067 726.571,733.067 725.472,733.067C725.322,733.067 725.201,733.188 725.201,733.338C725.201,734.241 725.201,737.149 725.201,738.052C725.201,738.124 725.23,738.193 725.28,738.244C725.331,738.295 725.4,738.323 725.472,738.323C726.714,738.323 731.862,738.323 733.104,738.323C733.176,738.323 733.245,738.352 733.296,738.402C733.346,738.453 733.375,738.522 733.375,738.594C733.375,739.427 733.375,741.948 733.375,742.781C733.375,742.853 733.346,742.922 733.296,742.972C733.245,743.023 733.176,743.052 733.104,743.052C731.862,743.052 726.714,743.052 725.472,743.052C725.4,743.052 725.331,743.08 725.28,743.131C725.23,743.182 725.201,743.25 725.201,743.322C725.201,744.332 725.201,747.871 725.201,748.881C725.201,748.952 725.23,749.021 725.28,749.072C725.331,749.123 725.4,749.151 725.472,749.151C726.608,749.151 730.988,749.151 732.098,749.151C732.242,749.151 732.361,749.038 732.369,748.894C732.395,748.368 732.456,747.174 732.483,746.648C732.49,746.504 732.609,746.391 732.753,746.391C733.556,746.391 736.01,746.391 736.831,746.391C736.98,746.391 737.102,746.513 737.102,746.662C737.102,747.835 737.102,752.471 737.102,753.644C737.102,753.716 737.073,753.785 737.022,753.836C736.972,753.886 736.903,753.915 736.831,753.915C734.574,753.915 718.905,753.915 716.648,753.915Z" style="fill:white;fill-rule:nonzero;"/>
                    <path d="M739.657,753.915C739.586,753.915 739.517,753.886 739.466,753.836C739.415,753.785 739.387,753.716 739.387,753.644C739.387,752.958 739.387,751.158 739.387,750.531C739.387,750.403 739.476,750.292 739.601,750.266C740.099,750.16 741.329,749.9 741.827,749.794C741.952,749.768 742.041,749.657 742.041,749.53C742.041,747.671 742.041,734.582 742.041,732.724C742.041,732.596 741.952,732.486 741.827,732.459C741.329,732.354 740.099,732.093 739.601,731.988C739.476,731.961 739.387,731.851 739.387,731.723C739.387,731.091 739.387,729.266 739.387,728.574C739.387,728.425 739.508,728.304 739.657,728.303C741.486,728.303 751.973,728.303 751.973,728.303C754,728.304 755.758,728.626 757.246,729.27C758.734,729.915 759.883,730.832 760.691,732.021C761.5,733.211 761.904,734.62 761.904,736.249C761.904,737.749 761.497,739.143 760.683,740.432C759.868,741.721 758.752,742.756 757.334,743.535C755.916,744.314 754.299,744.698 752.483,744.686C752.482,744.686 752.482,744.686 752.481,744.686C752.418,744.686 749.418,744.648 748.485,744.637C748.413,744.636 748.343,744.664 748.291,744.715C748.24,744.766 748.211,744.835 748.211,744.908C748.211,745.814 748.211,748.708 748.211,749.53C748.211,749.657 748.3,749.768 748.425,749.794C748.923,749.9 750.153,750.16 750.651,750.266C750.776,750.292 750.865,750.403 750.865,750.531C750.865,751.158 750.865,752.958 750.865,753.644C750.865,753.716 750.837,753.785 750.786,753.836C750.735,753.886 750.666,753.915 750.595,753.915C749.036,753.915 741.216,753.915 739.657,753.915ZM755.787,753.915C755.671,753.915 755.568,753.842 755.531,753.732C755.112,752.518 752.728,745.611 752.237,744.187C752.214,744.119 752.218,744.045 752.25,743.98C752.281,743.915 752.337,743.866 752.406,743.843C753.316,743.532 756.383,742.487 757.268,742.185C757.404,742.138 757.552,742.206 757.606,742.338C758.086,743.513 760.21,748.709 760.569,749.587C760.602,749.667 760.67,749.726 760.753,749.747C761.155,749.849 762.359,750.154 762.843,750.277C762.963,750.308 763.047,750.416 763.047,750.539C763.047,751.156 763.047,752.957 763.047,753.644C763.047,753.794 762.926,753.915 762.776,753.915C761.583,753.915 756.808,753.915 755.787,753.915ZM748.211,739.634C748.211,739.784 748.332,739.905 748.482,739.905C749.354,739.905 752.043,739.905 752.043,739.905C753.238,739.905 754.158,739.627 754.803,739.07C755.447,738.513 755.77,737.708 755.77,736.653C755.77,735.563 755.441,734.687 754.785,734.025C754.129,733.363 753.191,733.032 751.973,733.032C751.973,733.032 749.343,733.032 748.482,733.032C748.332,733.032 748.211,733.153 748.211,733.303C748.211,734.403 748.211,738.534 748.211,739.634Z" style="fill:white;fill-rule:nonzero;"/>
                </g>
            </g>
        </g>
    </g>
</svg>
