<?xml version="1.0" encoding="UTF-8" standalone="no"?>
<!DOCTYPE svg PUBLIC "-//W3C//DTD SVG 1.1//EN" "http://www.w3.org/Graphics/SVG/1.1/DTD/svg11.dtd">
<svg width="100%" height="100%" viewBox="0 0 800 800" version="1.1" xmlns="http://www.w3.org/2000/svg" xmlns:xlink="http://www.w3.org/1999/xlink" xml:space="preserve" xmlns:serif="http://www.serif.com/" style="fill-rule:evenodd;clip-rule:evenodd;stroke-linejoin:round;stroke-miterlimit:2;">
    <g transform="matrix(8.55615,0,0,8.55615,0,0)">
        <path d="M93.499,40.899L93.499,52.602C93.499,55.053 91.504,57.048 89.051,57.048L81.98,57.048C81.24,59.593 80.224,62.051 78.945,64.38L83.943,69.381C85.677,71.115 85.677,73.936 83.943,75.67L75.668,83.943C73.988,85.623 71.061,85.623 69.38,83.943L64.38,78.943C62.053,80.224 59.594,81.24 57.048,81.98L57.048,89.051C57.048,91.504 55.055,93.499 52.602,93.499L40.9,93.499C38.448,93.499 36.453,91.504 36.453,89.051L36.453,81.98C33.906,81.24 31.448,80.222 29.12,78.943L24.12,83.943C22.504,85.562 19.444,85.558 17.83,83.943L9.556,75.67C8.716,74.831 8.254,73.713 8.254,72.524C8.254,71.352 8.73,70.205 9.557,69.378L14.555,64.379C13.276,62.05 12.259,59.592 11.519,57.047L4.448,57.047C1.995,57.047 0,55.053 0,52.6L0,40.899C0,38.447 1.995,36.452 4.448,36.452L11.518,36.452C12.259,33.907 13.275,31.449 14.554,29.119L9.555,24.119C7.821,22.385 7.821,19.564 9.555,17.83L17.831,9.556C19.51,7.877 22.439,7.877 24.119,9.556L29.119,14.556C31.447,13.276 33.906,12.26 36.452,11.519L36.452,4.448C36.452,1.995 38.446,0 40.899,0L52.602,0C55.053,0 57.048,1.995 57.048,4.448L57.048,11.518C59.594,12.259 62.053,13.275 64.38,14.555L69.38,9.555C70.997,7.937 74.057,7.94 75.67,9.555L83.943,17.829C84.784,18.669 85.246,19.785 85.246,20.975C85.246,22.148 84.769,23.294 83.943,24.121L78.945,29.121C80.224,31.451 81.24,33.907 81.98,36.452L89.052,36.452C91.505,36.452 93.5,38.446 93.5,40.899L93.499,40.899ZM88.24,41.711L81.98,41.711C79.641,41.711 77.583,40.167 76.93,37.92C76.297,35.744 75.428,33.644 74.335,31.652C73.21,29.602 73.572,27.056 75.225,25.403L79.651,20.975L72.525,13.848L68.099,18.274C66.444,19.929 63.895,20.291 61.845,19.163C59.856,18.069 57.754,17.201 55.578,16.568C53.333,15.914 51.789,13.857 51.789,11.518L51.789,5.259L41.711,5.259L41.711,11.519C41.711,13.858 40.167,15.915 37.922,16.569C35.745,17.202 33.643,18.07 31.653,19.165C29.603,20.292 27.054,19.929 25.4,18.275L20.975,13.85L13.848,20.975L18.273,25.4C19.926,27.054 20.29,29.6 19.164,31.65C18.07,33.643 17.202,35.745 16.568,37.922C15.914,40.167 13.856,41.711 11.518,41.711L5.259,41.711L5.259,51.788L11.519,51.788C13.858,51.788 15.916,53.332 16.569,55.579C17.202,57.755 18.071,59.856 19.165,61.847C20.291,63.897 19.928,66.444 18.274,68.098L13.848,72.524L20.975,79.65L25.401,75.224C27.055,73.57 29.602,73.207 31.652,74.333C33.642,75.427 35.743,76.297 37.92,76.929C40.167,77.582 41.712,79.64 41.712,81.98L41.712,88.24L51.789,88.24L51.789,81.98C51.789,79.641 53.334,77.583 55.58,76.93C57.755,76.297 59.856,75.43 61.844,74.336C63.894,73.207 66.444,73.569 68.099,75.224L72.524,79.649L79.65,72.525L75.225,68.098C73.572,66.444 73.21,63.898 74.335,61.848C75.429,59.857 76.297,57.756 76.93,55.58C77.583,53.333 79.641,51.789 81.98,51.789L88.24,51.789L88.24,41.711ZM68.206,46.75C68.206,58.582 58.581,68.206 46.75,68.206C34.919,68.206 25.294,58.581 25.294,46.75C25.294,34.919 34.919,25.294 46.75,25.294C58.582,25.294 68.206,34.919 68.206,46.75ZM62.947,46.75C62.947,37.819 55.682,30.553 46.75,30.553C37.819,30.553 30.553,37.819 30.553,46.75C30.553,55.681 37.819,62.947 46.75,62.947C55.681,62.947 62.947,55.682 62.947,46.75Z" style="fill:rgb(10,10,10);"/>
    </g>
</svg>
